<?xml version="1.0" encoding="UTF-8" standalone="no"?>
<!DOCTYPE svg PUBLIC "-//W3C//DTD SVG 1.1//EN"
 "http://www.w3.org/Graphics/SVG/1.1/DTD/svg11.dtd">
<!-- Generated by graphviz version 2.28.0 (20120402.2051)
 -->
<!-- Title: controllers_diagram Pages: 1 -->
<svg width="1052pt" height="953pt"
 viewBox="0.00 0.00 1052.00 953.00" xmlns="http://www.w3.org/2000/svg" xmlns:xlink="http://www.w3.org/1999/xlink">
<g id="graph1" class="graph" transform="scale(1 1) rotate(0) translate(4 949)">
<title>controllers_diagram</title>
<polygon fill="white" stroke="white" points="-4,5 -4,-949 1049,-949 1049,5 -4,5"/>
<!-- _diagram_info -->
<g id="node1" class="node"><title>_diagram_info</title>
<text text-anchor="start" x="844" y="-613.6" font-family="Times,serif" font-size="13.00">Controllers diagram</text>
<text text-anchor="start" x="844" y="-599.6" font-family="Times,serif" font-size="13.00">Date: Apr 02 2012 &#45; 23:02</text>
<text text-anchor="start" x="844" y="-585.6" font-family="Times,serif" font-size="13.00">Migration version: 20120329083621</text>
<text text-anchor="start" x="844" y="-571.6" font-family="Times,serif" font-size="13.00">Generated by RailRoady 1.0.7</text>
<text text-anchor="start" x="844" y="-557.6" font-family="Times,serif" font-size="13.00">http://railroady.prestonlee.com</text>
</g>
<!-- Admin::AdminController -->
<g id="node2" class="node"><title>Admin::AdminController</title>
<polyline fill="none" stroke="black" points="804,-374.5 989,-374.5 "/>
<path fill="none" stroke="black" d="M989,-374.5C995,-374.5 1001,-380.5 1001,-386.5"/>
<polyline fill="none" stroke="black" points="1001,-386.5 1001,-485.5 "/>
<path fill="none" stroke="black" d="M1001,-485.5C1001,-491.5 995,-497.5 989,-497.5"/>
<polyline fill="none" stroke="black" points="989,-497.5 804,-497.5 "/>
<path fill="none" stroke="black" d="M804,-497.5C798,-497.5 792,-491.5 792,-485.5"/>
<polyline fill="none" stroke="black" points="792,-485.5 792,-386.5 "/>
<path fill="none" stroke="black" d="M792,-386.5C792,-380.5 798,-374.5 804,-374.5"/>
<text text-anchor="middle" x="896.5" y="-482.3" font-family="Times,serif" font-size="14.00">Admin::AdminController</text>
<polyline fill="none" stroke="black" points="792,-474.5 1001,-474.5 "/>
<text text-anchor="start" x="800" y="-459.3" font-family="Times,serif" font-size="14.00">_one_time_conditions_valid_82?</text>
<polyline fill="none" stroke="black" points="792,-451.5 1001,-451.5 "/>
<polyline fill="none" stroke="black" points="792,-427.5 1001,-427.5 "/>
<text text-anchor="start" x="800" y="-412.3" font-family="Times,serif" font-size="14.00">_layout</text>
<text text-anchor="start" x="800" y="-397.3" font-family="Times,serif" font-size="14.00">_run_process_action_callbacks</text>
<text text-anchor="start" x="800" y="-382.3" font-family="Times,serif" font-size="14.00">require_admin</text>
</g>
<!-- Admin::CategoriesController -->
<g id="node3" class="node"><title>Admin::CategoriesController</title>
<polyline fill="none" stroke="black" points="78,-528.5 239,-528.5 "/>
<path fill="none" stroke="black" d="M239,-528.5C245,-528.5 251,-534.5 251,-540.5"/>
<polyline fill="none" stroke="black" points="251,-540.5 251,-699.5 "/>
<path fill="none" stroke="black" d="M251,-699.5C251,-705.5 245,-711.5 239,-711.5"/>
<polyline fill="none" stroke="black" points="239,-711.5 78,-711.5 "/>
<path fill="none" stroke="black" d="M78,-711.5C72,-711.5 66,-705.5 66,-699.5"/>
<polyline fill="none" stroke="black" points="66,-699.5 66,-540.5 "/>
<path fill="none" stroke="black" d="M66,-540.5C66,-534.5 72,-528.5 78,-528.5"/>
<text text-anchor="middle" x="158.5" y="-696.3" font-family="Times,serif" font-size="14.00">Admin::CategoriesController</text>
<polyline fill="none" stroke="black" points="66,-688.5 251,-688.5 "/>
<text text-anchor="start" x="74" y="-673.3" font-family="Times,serif" font-size="14.00">create</text>
<text text-anchor="start" x="74" y="-658.3" font-family="Times,serif" font-size="14.00">destroy</text>
<text text-anchor="start" x="74" y="-643.3" font-family="Times,serif" font-size="14.00">edit</text>
<text text-anchor="start" x="74" y="-628.3" font-family="Times,serif" font-size="14.00">index</text>
<text text-anchor="start" x="74" y="-613.3" font-family="Times,serif" font-size="14.00">new</text>
<text text-anchor="start" x="74" y="-598.3" font-family="Times,serif" font-size="14.00">show</text>
<text text-anchor="start" x="74" y="-583.3" font-family="Times,serif" font-size="14.00">update</text>
<polyline fill="none" stroke="black" points="66,-575.5 251,-575.5 "/>
<polyline fill="none" stroke="black" points="66,-551.5 251,-551.5 "/>
<text text-anchor="start" x="74" y="-536.3" font-family="Times,serif" font-size="14.00">_layout</text>
</g>
<!-- Admin::CommentsController -->
<g id="node4" class="node"><title>Admin::CommentsController</title>
<polyline fill="none" stroke="black" points="364,-814.5 527,-814.5 "/>
<path fill="none" stroke="black" d="M527,-814.5C533,-814.5 539,-820.5 539,-826.5"/>
<polyline fill="none" stroke="black" points="539,-826.5 539,-925.5 "/>
<path fill="none" stroke="black" d="M539,-925.5C539,-931.5 533,-937.5 527,-937.5"/>
<polyline fill="none" stroke="black" points="527,-937.5 364,-937.5 "/>
<path fill="none" stroke="black" d="M364,-937.5C358,-937.5 352,-931.5 352,-925.5"/>
<polyline fill="none" stroke="black" points="352,-925.5 352,-826.5 "/>
<path fill="none" stroke="black" d="M352,-826.5C352,-820.5 358,-814.5 364,-814.5"/>
<text text-anchor="middle" x="445.5" y="-922.3" font-family="Times,serif" font-size="14.00">Admin::CommentsController</text>
<polyline fill="none" stroke="black" points="352,-914.5 539,-914.5 "/>
<text text-anchor="start" x="360" y="-899.3" font-family="Times,serif" font-size="14.00">ban_comment</text>
<text text-anchor="start" x="360" y="-884.3" font-family="Times,serif" font-size="14.00">create</text>
<text text-anchor="start" x="360" y="-869.3" font-family="Times,serif" font-size="14.00">destroy</text>
<polyline fill="none" stroke="black" points="352,-861.5 539,-861.5 "/>
<polyline fill="none" stroke="black" points="352,-837.5 539,-837.5 "/>
<text text-anchor="start" x="360" y="-822.3" font-family="Times,serif" font-size="14.00">_layout</text>
</g>
<!-- Admin::EventsController -->
<g id="node5" class="node"><title>Admin::EventsController</title>
<polyline fill="none" stroke="black" points="100,-264.5 239,-264.5 "/>
<path fill="none" stroke="black" d="M239,-264.5C245,-264.5 251,-270.5 251,-276.5"/>
<polyline fill="none" stroke="black" points="251,-276.5 251,-465.5 "/>
<path fill="none" stroke="black" d="M251,-465.5C251,-471.5 245,-477.5 239,-477.5"/>
<polyline fill="none" stroke="black" points="239,-477.5 100,-477.5 "/>
<path fill="none" stroke="black" d="M100,-477.5C94,-477.5 88,-471.5 88,-465.5"/>
<polyline fill="none" stroke="black" points="88,-465.5 88,-276.5 "/>
<path fill="none" stroke="black" d="M88,-276.5C88,-270.5 94,-264.5 100,-264.5"/>
<text text-anchor="middle" x="169.5" y="-462.3" font-family="Times,serif" font-size="14.00">Admin::EventsController</text>
<polyline fill="none" stroke="black" points="88,-454.5 251,-454.5 "/>
<text text-anchor="start" x="96" y="-439.3" font-family="Times,serif" font-size="14.00">category</text>
<text text-anchor="start" x="96" y="-424.3" font-family="Times,serif" font-size="14.00">create</text>
<text text-anchor="start" x="96" y="-409.3" font-family="Times,serif" font-size="14.00">destroy</text>
<text text-anchor="start" x="96" y="-394.3" font-family="Times,serif" font-size="14.00">edit</text>
<text text-anchor="start" x="96" y="-379.3" font-family="Times,serif" font-size="14.00">index</text>
<text text-anchor="start" x="96" y="-364.3" font-family="Times,serif" font-size="14.00">locations</text>
<text text-anchor="start" x="96" y="-349.3" font-family="Times,serif" font-size="14.00">new</text>
<text text-anchor="start" x="96" y="-334.3" font-family="Times,serif" font-size="14.00">show</text>
<text text-anchor="start" x="96" y="-319.3" font-family="Times,serif" font-size="14.00">update</text>
<polyline fill="none" stroke="black" points="88,-311.5 251,-311.5 "/>
<polyline fill="none" stroke="black" points="88,-287.5 251,-287.5 "/>
<text text-anchor="start" x="96" y="-272.3" font-family="Times,serif" font-size="14.00">_layout</text>
</g>
<!-- Admin::UserSessionsController -->
<g id="node6" class="node"><title>Admin::UserSessionsController</title>
<polyline fill="none" stroke="black" points="804,-198.5 980,-198.5 "/>
<path fill="none" stroke="black" d="M980,-198.5C986,-198.5 992,-204.5 992,-210.5"/>
<polyline fill="none" stroke="black" points="992,-210.5 992,-324.5 "/>
<path fill="none" stroke="black" d="M992,-324.5C992,-330.5 986,-336.5 980,-336.5"/>
<polyline fill="none" stroke="black" points="980,-336.5 804,-336.5 "/>
<path fill="none" stroke="black" d="M804,-336.5C798,-336.5 792,-330.5 792,-324.5"/>
<polyline fill="none" stroke="black" points="792,-324.5 792,-210.5 "/>
<path fill="none" stroke="black" d="M792,-210.5C792,-204.5 798,-198.5 804,-198.5"/>
<text text-anchor="middle" x="892" y="-321.3" font-family="Times,serif" font-size="14.00">Admin::UserSessionsController</text>
<polyline fill="none" stroke="black" points="792,-313.5 992,-313.5 "/>
<text text-anchor="start" x="800" y="-298.3" font-family="Times,serif" font-size="14.00">create</text>
<text text-anchor="start" x="800" y="-283.3" font-family="Times,serif" font-size="14.00">destroy</text>
<text text-anchor="start" x="800" y="-268.3" font-family="Times,serif" font-size="14.00">new</text>
<polyline fill="none" stroke="black" points="792,-260.5 992,-260.5 "/>
<polyline fill="none" stroke="black" points="792,-236.5 992,-236.5 "/>
<text text-anchor="start" x="800" y="-221.3" font-family="Times,serif" font-size="14.00">_layout</text>
<text text-anchor="start" x="800" y="-206.3" font-family="Times,serif" font-size="14.00">_run_process_action_callbacks</text>
</g>
<!-- Admin::UsersController -->
<g id="node7" class="node"><title>Admin::UsersController</title>
<polyline fill="none" stroke="black" points="12,-0.5 145,-0.5 "/>
<path fill="none" stroke="black" d="M145,-0.5C151,-0.5 157,-6.5 157,-12.5"/>
<polyline fill="none" stroke="black" points="157,-12.5 157,-216.5 "/>
<path fill="none" stroke="black" d="M157,-216.5C157,-222.5 151,-228.5 145,-228.5"/>
<polyline fill="none" stroke="black" points="145,-228.5 12,-228.5 "/>
<path fill="none" stroke="black" d="M12,-228.5C6,-228.5 0,-222.5 0,-216.5"/>
<polyline fill="none" stroke="black" points="0,-216.5 0,-12.5 "/>
<path fill="none" stroke="black" d="M0,-12.5C0,-6.5 6,-0.5 12,-0.5"/>
<text text-anchor="middle" x="78.5" y="-213.3" font-family="Times,serif" font-size="14.00">Admin::UsersController</text>
<polyline fill="none" stroke="black" points="0,-205.5 157,-205.5 "/>
<text text-anchor="start" x="8" y="-190.3" font-family="Times,serif" font-size="14.00">create</text>
<text text-anchor="start" x="8" y="-175.3" font-family="Times,serif" font-size="14.00">destroy</text>
<text text-anchor="start" x="8" y="-160.3" font-family="Times,serif" font-size="14.00">edit</text>
<text text-anchor="start" x="8" y="-145.3" font-family="Times,serif" font-size="14.00">events</text>
<text text-anchor="start" x="8" y="-130.3" font-family="Times,serif" font-size="14.00">index</text>
<text text-anchor="start" x="8" y="-115.3" font-family="Times,serif" font-size="14.00">messages</text>
<text text-anchor="start" x="8" y="-100.3" font-family="Times,serif" font-size="14.00">new</text>
<text text-anchor="start" x="8" y="-85.3" font-family="Times,serif" font-size="14.00">reminders</text>
<text text-anchor="start" x="8" y="-70.3" font-family="Times,serif" font-size="14.00">show</text>
<text text-anchor="start" x="8" y="-55.3" font-family="Times,serif" font-size="14.00">update</text>
<polyline fill="none" stroke="black" points="0,-47.5 157,-47.5 "/>
<polyline fill="none" stroke="black" points="0,-23.5 157,-23.5 "/>
<text text-anchor="start" x="8" y="-8.3" font-family="Times,serif" font-size="14.00">_layout</text>
</g>
<!-- ApplicationController -->
<g id="node8" class="node"><title>ApplicationController</title>
<polyline fill="none" stroke="black" points="298,-220.5 483,-220.5 "/>
<path fill="none" stroke="black" d="M483,-220.5C489,-220.5 495,-226.5 495,-232.5"/>
<polyline fill="none" stroke="black" points="495,-232.5 495,-526.5 "/>
<path fill="none" stroke="black" d="M495,-526.5C495,-532.5 489,-538.5 483,-538.5"/>
<polyline fill="none" stroke="black" points="483,-538.5 298,-538.5 "/>
<path fill="none" stroke="black" d="M298,-538.5C292,-538.5 286,-532.5 286,-526.5"/>
<polyline fill="none" stroke="black" points="286,-526.5 286,-232.5 "/>
<path fill="none" stroke="black" d="M286,-232.5C286,-226.5 292,-220.5 298,-220.5"/>
<text text-anchor="middle" x="390.5" y="-523.3" font-family="Times,serif" font-size="14.00">ApplicationController</text>
<polyline fill="none" stroke="black" points="286,-515.5 495,-515.5 "/>
<text text-anchor="start" x="294" y="-500.3" font-family="Times,serif" font-size="14.00">_one_time_conditions_valid_74?</text>
<text text-anchor="start" x="294" y="-485.3" font-family="Times,serif" font-size="14.00">_one_time_conditions_valid_76?</text>
<text text-anchor="start" x="294" y="-470.3" font-family="Times,serif" font-size="14.00">_one_time_conditions_valid_78?</text>
<text text-anchor="start" x="294" y="-455.3" font-family="Times,serif" font-size="14.00">change_locale</text>
<polyline fill="none" stroke="black" points="286,-447.5 495,-447.5 "/>
<polyline fill="none" stroke="black" points="286,-423.5 495,-423.5 "/>
<text text-anchor="start" x="294" y="-408.3" font-family="Times,serif" font-size="14.00">_layout</text>
<text text-anchor="start" x="294" y="-393.3" font-family="Times,serif" font-size="14.00">_run_process_action_callbacks</text>
<text text-anchor="start" x="294" y="-378.3" font-family="Times,serif" font-size="14.00">coming_soon</text>
<text text-anchor="start" x="294" y="-363.3" font-family="Times,serif" font-size="14.00">current_user</text>
<text text-anchor="start" x="294" y="-348.3" font-family="Times,serif" font-size="14.00">current_user_session</text>
<text text-anchor="start" x="294" y="-333.3" font-family="Times,serif" font-size="14.00">default_url_options</text>
<text text-anchor="start" x="294" y="-318.3" font-family="Times,serif" font-size="14.00">get_events_and_categories</text>
<text text-anchor="start" x="294" y="-303.3" font-family="Times,serif" font-size="14.00">redirect_back_or_default</text>
<text text-anchor="start" x="294" y="-288.3" font-family="Times,serif" font-size="14.00">require_no_user</text>
<text text-anchor="start" x="294" y="-273.3" font-family="Times,serif" font-size="14.00">require_ownership</text>
<text text-anchor="start" x="294" y="-258.3" font-family="Times,serif" font-size="14.00">require_user</text>
<text text-anchor="start" x="294" y="-243.3" font-family="Times,serif" font-size="14.00">set_locale</text>
<text text-anchor="start" x="294" y="-228.3" font-family="Times,serif" font-size="14.00">store_location</text>
</g>
<!-- CommentsController -->
<g id="node9" class="node"><title>CommentsController</title>
<polyline fill="none" stroke="black" points="210,-44.5 403,-44.5 "/>
<path fill="none" stroke="black" d="M403,-44.5C409,-44.5 415,-50.5 415,-56.5"/>
<polyline fill="none" stroke="black" points="415,-56.5 415,-170.5 "/>
<path fill="none" stroke="black" d="M415,-170.5C415,-176.5 409,-182.5 403,-182.5"/>
<polyline fill="none" stroke="black" points="403,-182.5 210,-182.5 "/>
<path fill="none" stroke="black" d="M210,-182.5C204,-182.5 198,-176.5 198,-170.5"/>
<polyline fill="none" stroke="black" points="198,-170.5 198,-56.5 "/>
<path fill="none" stroke="black" d="M198,-56.5C198,-50.5 204,-44.5 210,-44.5"/>
<text text-anchor="middle" x="306.5" y="-167.3" font-family="Times,serif" font-size="14.00">CommentsController</text>
<polyline fill="none" stroke="black" points="198,-159.5 415,-159.5 "/>
<text text-anchor="start" x="206" y="-144.3" font-family="Times,serif" font-size="14.00">_one_time_conditions_valid_334?</text>
<text text-anchor="start" x="206" y="-129.3" font-family="Times,serif" font-size="14.00">create</text>
<text text-anchor="start" x="206" y="-114.3" font-family="Times,serif" font-size="14.00">destroy</text>
<polyline fill="none" stroke="black" points="198,-106.5 415,-106.5 "/>
<polyline fill="none" stroke="black" points="198,-82.5 415,-82.5 "/>
<text text-anchor="start" x="206" y="-67.3" font-family="Times,serif" font-size="14.00">_layout</text>
<text text-anchor="start" x="206" y="-52.3" font-family="Times,serif" font-size="14.00">_run_process_action_callbacks</text>
</g>
<!-- CommunicationsController -->
<g id="node10" class="node"><title>CommunicationsController</title>
<polyline fill="none" stroke="black" points="804,-0.5 997,-0.5 "/>
<path fill="none" stroke="black" d="M997,-0.5C1003,-0.5 1009,-6.5 1009,-12.5"/>
<polyline fill="none" stroke="black" points="1009,-12.5 1009,-141.5 "/>
<path fill="none" stroke="black" d="M1009,-141.5C1009,-147.5 1003,-153.5 997,-153.5"/>
<polyline fill="none" stroke="black" points="997,-153.5 804,-153.5 "/>
<path fill="none" stroke="black" d="M804,-153.5C798,-153.5 792,-147.5 792,-141.5"/>
<polyline fill="none" stroke="black" points="792,-141.5 792,-12.5 "/>
<path fill="none" stroke="black" d="M792,-12.5C792,-6.5 798,-0.5 804,-0.5"/>
<text text-anchor="middle" x="900.5" y="-138.3" font-family="Times,serif" font-size="14.00">CommunicationsController</text>
<polyline fill="none" stroke="black" points="792,-130.5 1009,-130.5 "/>
<text text-anchor="start" x="800" y="-115.3" font-family="Times,serif" font-size="14.00">_one_time_conditions_valid_342?</text>
<text text-anchor="start" x="800" y="-100.3" font-family="Times,serif" font-size="14.00">create</text>
<text text-anchor="start" x="800" y="-85.3" font-family="Times,serif" font-size="14.00">destroy</text>
<text text-anchor="start" x="800" y="-70.3" font-family="Times,serif" font-size="14.00">show</text>
<polyline fill="none" stroke="black" points="792,-62.5 1009,-62.5 "/>
<polyline fill="none" stroke="black" points="792,-38.5 1009,-38.5 "/>
<text text-anchor="start" x="800" y="-23.3" font-family="Times,serif" font-size="14.00">_layout</text>
<text text-anchor="start" x="800" y="-8.3" font-family="Times,serif" font-size="14.00">_run_process_action_callbacks</text>
</g>
<!-- EventsController -->
<g id="node11" class="node"><title>EventsController</title>
<polyline fill="none" stroke="black" points="584,-572.5 777,-572.5 "/>
<path fill="none" stroke="black" d="M777,-572.5C783,-572.5 789,-578.5 789,-584.5"/>
<polyline fill="none" stroke="black" points="789,-584.5 789,-818.5 "/>
<path fill="none" stroke="black" d="M789,-818.5C789,-824.5 783,-830.5 777,-830.5"/>
<polyline fill="none" stroke="black" points="777,-830.5 584,-830.5 "/>
<path fill="none" stroke="black" d="M584,-830.5C578,-830.5 572,-824.5 572,-818.5"/>
<polyline fill="none" stroke="black" points="572,-818.5 572,-584.5 "/>
<path fill="none" stroke="black" d="M572,-584.5C572,-578.5 578,-572.5 584,-572.5"/>
<text text-anchor="middle" x="680.5" y="-815.3" font-family="Times,serif" font-size="14.00">EventsController</text>
<polyline fill="none" stroke="black" points="572,-807.5 789,-807.5 "/>
<text text-anchor="start" x="580" y="-792.3" font-family="Times,serif" font-size="14.00">_one_time_conditions_valid_344?</text>
<text text-anchor="start" x="580" y="-777.3" font-family="Times,serif" font-size="14.00">_one_time_conditions_valid_348?</text>
<text text-anchor="start" x="580" y="-762.3" font-family="Times,serif" font-size="14.00">category</text>
<text text-anchor="start" x="580" y="-747.3" font-family="Times,serif" font-size="14.00">create</text>
<text text-anchor="start" x="580" y="-732.3" font-family="Times,serif" font-size="14.00">destroy</text>
<text text-anchor="start" x="580" y="-717.3" font-family="Times,serif" font-size="14.00">edit</text>
<text text-anchor="start" x="580" y="-702.3" font-family="Times,serif" font-size="14.00">index</text>
<text text-anchor="start" x="580" y="-687.3" font-family="Times,serif" font-size="14.00">locations</text>
<text text-anchor="start" x="580" y="-672.3" font-family="Times,serif" font-size="14.00">new</text>
<text text-anchor="start" x="580" y="-657.3" font-family="Times,serif" font-size="14.00">show</text>
<text text-anchor="start" x="580" y="-642.3" font-family="Times,serif" font-size="14.00">update</text>
<polyline fill="none" stroke="black" points="572,-634.5 789,-634.5 "/>
<polyline fill="none" stroke="black" points="572,-610.5 789,-610.5 "/>
<text text-anchor="start" x="580" y="-595.3" font-family="Times,serif" font-size="14.00">_layout</text>
<text text-anchor="start" x="580" y="-580.3" font-family="Times,serif" font-size="14.00">_run_process_action_callbacks</text>
</g>
<!-- FollowingsController -->
<g id="node12" class="node"><title>FollowingsController</title>
<polyline fill="none" stroke="black" points="56,-748.5 249,-748.5 "/>
<path fill="none" stroke="black" d="M249,-748.5C255,-748.5 261,-754.5 261,-760.5"/>
<polyline fill="none" stroke="black" points="261,-760.5 261,-904.5 "/>
<path fill="none" stroke="black" d="M261,-904.5C261,-910.5 255,-916.5 249,-916.5"/>
<polyline fill="none" stroke="black" points="249,-916.5 56,-916.5 "/>
<path fill="none" stroke="black" d="M56,-916.5C50,-916.5 44,-910.5 44,-904.5"/>
<polyline fill="none" stroke="black" points="44,-904.5 44,-760.5 "/>
<path fill="none" stroke="black" d="M44,-760.5C44,-754.5 50,-748.5 56,-748.5"/>
<text text-anchor="middle" x="152.5" y="-901.3" font-family="Times,serif" font-size="14.00">FollowingsController</text>
<polyline fill="none" stroke="black" points="44,-893.5 261,-893.5 "/>
<text text-anchor="start" x="52" y="-878.3" font-family="Times,serif" font-size="14.00">_one_time_conditions_valid_356?</text>
<text text-anchor="start" x="52" y="-863.3" font-family="Times,serif" font-size="14.00">_one_time_conditions_valid_360?</text>
<text text-anchor="start" x="52" y="-848.3" font-family="Times,serif" font-size="14.00">create</text>
<text text-anchor="start" x="52" y="-833.3" font-family="Times,serif" font-size="14.00">destroy</text>
<polyline fill="none" stroke="black" points="44,-825.5 261,-825.5 "/>
<polyline fill="none" stroke="black" points="44,-801.5 261,-801.5 "/>
<text text-anchor="start" x="52" y="-786.3" font-family="Times,serif" font-size="14.00">_layout</text>
<text text-anchor="start" x="52" y="-771.3" font-family="Times,serif" font-size="14.00">_run_process_action_callbacks</text>
<text text-anchor="start" x="52" y="-756.3" font-family="Times,serif" font-size="14.00">require_following_ownership</text>
</g>
<!-- PasswordResetsController -->
<g id="node13" class="node"><title>PasswordResetsController</title>
<polyline fill="none" stroke="black" points="320,-572.5 514,-572.5 "/>
<path fill="none" stroke="black" d="M514,-572.5C520,-572.5 526,-578.5 526,-584.5"/>
<polyline fill="none" stroke="black" points="526,-584.5 526,-758.5 "/>
<path fill="none" stroke="black" d="M526,-758.5C526,-764.5 520,-770.5 514,-770.5"/>
<polyline fill="none" stroke="black" points="514,-770.5 320,-770.5 "/>
<path fill="none" stroke="black" d="M320,-770.5C314,-770.5 308,-764.5 308,-758.5"/>
<polyline fill="none" stroke="black" points="308,-758.5 308,-584.5 "/>
<path fill="none" stroke="black" d="M308,-584.5C308,-578.5 314,-572.5 320,-572.5"/>
<text text-anchor="middle" x="417" y="-755.3" font-family="Times,serif" font-size="14.00">PasswordResetsController</text>
<polyline fill="none" stroke="black" points="308,-747.5 526,-747.5 "/>
<text text-anchor="start" x="316" y="-732.3" font-family="Times,serif" font-size="14.00">_one_time_conditions_valid_364?</text>
<text text-anchor="start" x="316" y="-717.3" font-family="Times,serif" font-size="14.00">_one_time_conditions_valid_368?</text>
<text text-anchor="start" x="316" y="-702.3" font-family="Times,serif" font-size="14.00">create</text>
<text text-anchor="start" x="316" y="-687.3" font-family="Times,serif" font-size="14.00">edit</text>
<text text-anchor="start" x="316" y="-672.3" font-family="Times,serif" font-size="14.00">new</text>
<text text-anchor="start" x="316" y="-657.3" font-family="Times,serif" font-size="14.00">update</text>
<polyline fill="none" stroke="black" points="308,-649.5 526,-649.5 "/>
<polyline fill="none" stroke="black" points="308,-625.5 526,-625.5 "/>
<text text-anchor="start" x="316" y="-610.3" font-family="Times,serif" font-size="14.00">_layout</text>
<text text-anchor="start" x="316" y="-595.3" font-family="Times,serif" font-size="14.00">_run_process_action_callbacks</text>
<text text-anchor="start" x="316" y="-580.3" font-family="Times,serif" font-size="14.00">load_user_using_perishable_token</text>
</g>
<!-- ReminderController -->
<g id="node14" class="node"><title>ReminderController</title>
<polyline fill="none" stroke="black" points="848,-836.5 958,-836.5 "/>
<path fill="none" stroke="black" d="M958,-836.5C964,-836.5 970,-842.5 970,-848.5"/>
<polyline fill="none" stroke="black" points="970,-848.5 970,-932.5 "/>
<path fill="none" stroke="black" d="M970,-932.5C970,-938.5 964,-944.5 958,-944.5"/>
<polyline fill="none" stroke="black" points="958,-944.5 848,-944.5 "/>
<path fill="none" stroke="black" d="M848,-944.5C842,-944.5 836,-938.5 836,-932.5"/>
<polyline fill="none" stroke="black" points="836,-932.5 836,-848.5 "/>
<path fill="none" stroke="black" d="M836,-848.5C836,-842.5 842,-836.5 848,-836.5"/>
<text text-anchor="middle" x="903" y="-929.3" font-family="Times,serif" font-size="14.00">ReminderController</text>
<polyline fill="none" stroke="black" points="836,-921.5 970,-921.5 "/>
<text text-anchor="start" x="844" y="-906.3" font-family="Times,serif" font-size="14.00">add</text>
<text text-anchor="start" x="844" y="-891.3" font-family="Times,serif" font-size="14.00">delete</text>
<polyline fill="none" stroke="black" points="836,-883.5 970,-883.5 "/>
<polyline fill="none" stroke="black" points="836,-859.5 970,-859.5 "/>
<text text-anchor="start" x="844" y="-844.3" font-family="Times,serif" font-size="14.00">_layout</text>
</g>
<!-- TranslationsController -->
<g id="node15" class="node"><title>TranslationsController</title>
<polyline fill="none" stroke="black" points="540,-44.5 733,-44.5 "/>
<path fill="none" stroke="black" d="M733,-44.5C739,-44.5 745,-50.5 745,-56.5"/>
<polyline fill="none" stroke="black" points="745,-56.5 745,-215.5 "/>
<path fill="none" stroke="black" d="M745,-215.5C745,-221.5 739,-227.5 733,-227.5"/>
<polyline fill="none" stroke="black" points="733,-227.5 540,-227.5 "/>
<path fill="none" stroke="black" d="M540,-227.5C534,-227.5 528,-221.5 528,-215.5"/>
<polyline fill="none" stroke="black" points="528,-215.5 528,-56.5 "/>
<path fill="none" stroke="black" d="M528,-56.5C528,-50.5 534,-44.5 540,-44.5"/>
<text text-anchor="middle" x="636.5" y="-212.3" font-family="Times,serif" font-size="14.00">TranslationsController</text>
<polyline fill="none" stroke="black" points="528,-204.5 745,-204.5 "/>
<text text-anchor="start" x="536" y="-189.3" font-family="Times,serif" font-size="14.00">_one_time_conditions_valid_374?</text>
<text text-anchor="start" x="536" y="-174.3" font-family="Times,serif" font-size="14.00">commit</text>
<text text-anchor="start" x="536" y="-159.3" font-family="Times,serif" font-size="14.00">create</text>
<text text-anchor="start" x="536" y="-144.3" font-family="Times,serif" font-size="14.00">destroy</text>
<text text-anchor="start" x="536" y="-129.3" font-family="Times,serif" font-size="14.00">new</text>
<text text-anchor="start" x="536" y="-114.3" font-family="Times,serif" font-size="14.00">show</text>
<polyline fill="none" stroke="black" points="528,-106.5 745,-106.5 "/>
<polyline fill="none" stroke="black" points="528,-82.5 745,-82.5 "/>
<text text-anchor="start" x="536" y="-67.3" font-family="Times,serif" font-size="14.00">_layout</text>
<text text-anchor="start" x="536" y="-52.3" font-family="Times,serif" font-size="14.00">_run_process_action_callbacks</text>
</g>
<!-- UserSessionsController -->
<g id="node16" class="node"><title>UserSessionsController</title>
<polyline fill="none" stroke="black" points="848,-660.5 976,-660.5 "/>
<path fill="none" stroke="black" d="M976,-660.5C982,-660.5 988,-666.5 988,-672.5"/>
<polyline fill="none" stroke="black" points="988,-672.5 988,-771.5 "/>
<path fill="none" stroke="black" d="M988,-771.5C988,-777.5 982,-783.5 976,-783.5"/>
<polyline fill="none" stroke="black" points="976,-783.5 848,-783.5 "/>
<path fill="none" stroke="black" d="M848,-783.5C842,-783.5 836,-777.5 836,-771.5"/>
<polyline fill="none" stroke="black" points="836,-771.5 836,-672.5 "/>
<path fill="none" stroke="black" d="M836,-672.5C836,-666.5 842,-660.5 848,-660.5"/>
<text text-anchor="middle" x="912" y="-768.3" font-family="Times,serif" font-size="14.00">UserSessionsController</text>
<polyline fill="none" stroke="black" points="836,-760.5 988,-760.5 "/>
<text text-anchor="start" x="844" y="-745.3" font-family="Times,serif" font-size="14.00">create</text>
<text text-anchor="start" x="844" y="-730.3" font-family="Times,serif" font-size="14.00">destroy</text>
<text text-anchor="start" x="844" y="-715.3" font-family="Times,serif" font-size="14.00">new</text>
<polyline fill="none" stroke="black" points="836,-707.5 988,-707.5 "/>
<polyline fill="none" stroke="black" points="836,-683.5 988,-683.5 "/>
<text text-anchor="start" x="844" y="-668.3" font-family="Times,serif" font-size="14.00">_layout</text>
</g>
<!-- UsersController -->
<g id="node17" class="node"><title>UsersController</title>
<polyline fill="none" stroke="black" points="540,-264.5 733,-264.5 "/>
<path fill="none" stroke="black" d="M733,-264.5C739,-264.5 745,-270.5 745,-276.5"/>
<polyline fill="none" stroke="black" points="745,-276.5 745,-525.5 "/>
<path fill="none" stroke="black" d="M745,-525.5C745,-531.5 739,-537.5 733,-537.5"/>
<polyline fill="none" stroke="black" points="733,-537.5 540,-537.5 "/>
<path fill="none" stroke="black" d="M540,-537.5C534,-537.5 528,-531.5 528,-525.5"/>
<polyline fill="none" stroke="black" points="528,-525.5 528,-276.5 "/>
<path fill="none" stroke="black" d="M528,-276.5C528,-270.5 534,-264.5 540,-264.5"/>
<text text-anchor="middle" x="636.5" y="-522.3" font-family="Times,serif" font-size="14.00">UsersController</text>
<polyline fill="none" stroke="black" points="528,-514.5 745,-514.5 "/>
<text text-anchor="start" x="536" y="-499.3" font-family="Times,serif" font-size="14.00">_one_time_conditions_valid_376?</text>
<text text-anchor="start" x="536" y="-484.3" font-family="Times,serif" font-size="14.00">create</text>
<text text-anchor="start" x="536" y="-469.3" font-family="Times,serif" font-size="14.00">destroy</text>
<text text-anchor="start" x="536" y="-454.3" font-family="Times,serif" font-size="14.00">edit</text>
<text text-anchor="start" x="536" y="-439.3" font-family="Times,serif" font-size="14.00">events</text>
<text text-anchor="start" x="536" y="-424.3" font-family="Times,serif" font-size="14.00">get_current_user</text>
<text text-anchor="start" x="536" y="-409.3" font-family="Times,serif" font-size="14.00">index</text>
<text text-anchor="start" x="536" y="-394.3" font-family="Times,serif" font-size="14.00">messages</text>
<text text-anchor="start" x="536" y="-379.3" font-family="Times,serif" font-size="14.00">new</text>
<text text-anchor="start" x="536" y="-364.3" font-family="Times,serif" font-size="14.00">reminders</text>
<text text-anchor="start" x="536" y="-349.3" font-family="Times,serif" font-size="14.00">show</text>
<text text-anchor="start" x="536" y="-334.3" font-family="Times,serif" font-size="14.00">update</text>
<polyline fill="none" stroke="black" points="528,-326.5 745,-326.5 "/>
<polyline fill="none" stroke="black" points="528,-302.5 745,-302.5 "/>
<text text-anchor="start" x="536" y="-287.3" font-family="Times,serif" font-size="14.00">_layout</text>
<text text-anchor="start" x="536" y="-272.3" font-family="Times,serif" font-size="14.00">_run_process_action_callbacks</text>
</g>
</g>
</svg>
