<?xml version="1.0" encoding="UTF-8" standalone="no"?>
<!DOCTYPE svg PUBLIC "-//W3C//DTD SVG 1.1//EN"
 "http://www.w3.org/Graphics/SVG/1.1/DTD/svg11.dtd">
<!-- Generated by graphviz version 2.28.0 (20120402.2051)
 -->
<!-- Title: controllers_diagram Pages: 1 -->
<svg width="1230pt" height="1144pt"
 viewBox="0.00 0.00 1230.00 1144.00" xmlns="http://www.w3.org/2000/svg" xmlns:xlink="http://www.w3.org/1999/xlink">
<g id="graph1" class="graph" transform="scale(1 1) rotate(0) translate(4 1140)">
<title>controllers_diagram</title>
<polygon fill="white" stroke="white" points="-4,5 -4,-1140 1227,-1140 1227,5 -4,5"/>
<!-- _diagram_info -->
<g id="node1" class="node"><title>_diagram_info</title>
<text text-anchor="start" x="537" y="-63.6" font-family="Times,serif" font-size="13.00">Controllers diagram</text>
<text text-anchor="start" x="537" y="-49.6" font-family="Times,serif" font-size="13.00">Date: Apr 08 2012 &#45; 14:36</text>
<text text-anchor="start" x="537" y="-35.6" font-family="Times,serif" font-size="13.00">Migration version: 20120406114158</text>
<text text-anchor="start" x="537" y="-21.6" font-family="Times,serif" font-size="13.00">Generated by RailRoady 1.0.7</text>
<text text-anchor="start" x="537" y="-7.6" font-family="Times,serif" font-size="13.00">http://railroady.prestonlee.com</text>
</g>
<!-- Admin::AdminController -->
<g id="node2" class="node"><title>Admin::AdminController</title>
<polyline fill="none" stroke="black" points="81,-23.5 266,-23.5 "/>
<path fill="none" stroke="black" d="M266,-23.5C272,-23.5 278,-29.5 278,-35.5"/>
<polyline fill="none" stroke="black" points="278,-35.5 278,-134.5 "/>
<path fill="none" stroke="black" d="M278,-134.5C278,-140.5 272,-146.5 266,-146.5"/>
<polyline fill="none" stroke="black" points="266,-146.5 81,-146.5 "/>
<path fill="none" stroke="black" d="M81,-146.5C75,-146.5 69,-140.5 69,-134.5"/>
<polyline fill="none" stroke="black" points="69,-134.5 69,-35.5 "/>
<path fill="none" stroke="black" d="M69,-35.5C69,-29.5 75,-23.5 81,-23.5"/>
<text text-anchor="middle" x="173.5" y="-131.3" font-family="Times,serif" font-size="14.00">Admin::AdminController</text>
<polyline fill="none" stroke="black" points="69,-123.5 278,-123.5 "/>
<text text-anchor="start" x="77" y="-108.3" font-family="Times,serif" font-size="14.00">_one_time_conditions_valid_82?</text>
<polyline fill="none" stroke="black" points="69,-100.5 278,-100.5 "/>
<polyline fill="none" stroke="black" points="69,-76.5 278,-76.5 "/>
<text text-anchor="start" x="77" y="-61.3" font-family="Times,serif" font-size="14.00">_layout</text>
<text text-anchor="start" x="77" y="-46.3" font-family="Times,serif" font-size="14.00">_run_process_action_callbacks</text>
<text text-anchor="start" x="77" y="-31.3" font-family="Times,serif" font-size="14.00">require_admin</text>
</g>
<!-- Admin::CategoriesController -->
<g id="node3" class="node"><title>Admin::CategoriesController</title>
<polyline fill="none" stroke="black" points="1024,-575.5 1185,-575.5 "/>
<path fill="none" stroke="black" d="M1185,-575.5C1191,-575.5 1197,-581.5 1197,-587.5"/>
<polyline fill="none" stroke="black" points="1197,-587.5 1197,-746.5 "/>
<path fill="none" stroke="black" d="M1197,-746.5C1197,-752.5 1191,-758.5 1185,-758.5"/>
<polyline fill="none" stroke="black" points="1185,-758.5 1024,-758.5 "/>
<path fill="none" stroke="black" d="M1024,-758.5C1018,-758.5 1012,-752.5 1012,-746.5"/>
<polyline fill="none" stroke="black" points="1012,-746.5 1012,-587.5 "/>
<path fill="none" stroke="black" d="M1012,-587.5C1012,-581.5 1018,-575.5 1024,-575.5"/>
<text text-anchor="middle" x="1104.5" y="-743.3" font-family="Times,serif" font-size="14.00">Admin::CategoriesController</text>
<polyline fill="none" stroke="black" points="1012,-735.5 1197,-735.5 "/>
<text text-anchor="start" x="1020" y="-720.3" font-family="Times,serif" font-size="14.00">create</text>
<text text-anchor="start" x="1020" y="-705.3" font-family="Times,serif" font-size="14.00">destroy</text>
<text text-anchor="start" x="1020" y="-690.3" font-family="Times,serif" font-size="14.00">edit</text>
<text text-anchor="start" x="1020" y="-675.3" font-family="Times,serif" font-size="14.00">index</text>
<text text-anchor="start" x="1020" y="-660.3" font-family="Times,serif" font-size="14.00">new</text>
<text text-anchor="start" x="1020" y="-645.3" font-family="Times,serif" font-size="14.00">show</text>
<text text-anchor="start" x="1020" y="-630.3" font-family="Times,serif" font-size="14.00">update</text>
<polyline fill="none" stroke="black" points="1012,-622.5 1197,-622.5 "/>
<polyline fill="none" stroke="black" points="1012,-598.5 1197,-598.5 "/>
<text text-anchor="start" x="1020" y="-583.3" font-family="Times,serif" font-size="14.00">_layout</text>
</g>
<!-- Admin::CommentsController -->
<g id="node4" class="node"><title>Admin::CommentsController</title>
<polyline fill="none" stroke="black" points="1047,-989.5 1210,-989.5 "/>
<path fill="none" stroke="black" d="M1210,-989.5C1216,-989.5 1222,-995.5 1222,-1001.5"/>
<polyline fill="none" stroke="black" points="1222,-1001.5 1222,-1100.5 "/>
<path fill="none" stroke="black" d="M1222,-1100.5C1222,-1106.5 1216,-1112.5 1210,-1112.5"/>
<polyline fill="none" stroke="black" points="1210,-1112.5 1047,-1112.5 "/>
<path fill="none" stroke="black" d="M1047,-1112.5C1041,-1112.5 1035,-1106.5 1035,-1100.5"/>
<polyline fill="none" stroke="black" points="1035,-1100.5 1035,-1001.5 "/>
<path fill="none" stroke="black" d="M1035,-1001.5C1035,-995.5 1041,-989.5 1047,-989.5"/>
<text text-anchor="middle" x="1128.5" y="-1097.3" font-family="Times,serif" font-size="14.00">Admin::CommentsController</text>
<polyline fill="none" stroke="black" points="1035,-1089.5 1222,-1089.5 "/>
<text text-anchor="start" x="1043" y="-1074.3" font-family="Times,serif" font-size="14.00">ban_comment</text>
<text text-anchor="start" x="1043" y="-1059.3" font-family="Times,serif" font-size="14.00">create</text>
<text text-anchor="start" x="1043" y="-1044.3" font-family="Times,serif" font-size="14.00">destroy</text>
<polyline fill="none" stroke="black" points="1035,-1036.5 1222,-1036.5 "/>
<polyline fill="none" stroke="black" points="1035,-1012.5 1222,-1012.5 "/>
<text text-anchor="start" x="1043" y="-997.3" font-family="Times,serif" font-size="14.00">_layout</text>
</g>
<!-- Admin::EventsController -->
<g id="node5" class="node"><title>Admin::EventsController</title>
<polyline fill="none" stroke="black" points="771,-713.5 964,-713.5 "/>
<path fill="none" stroke="black" d="M964,-713.5C970,-713.5 976,-719.5 976,-725.5"/>
<polyline fill="none" stroke="black" points="976,-725.5 976,-959.5 "/>
<path fill="none" stroke="black" d="M976,-959.5C976,-965.5 970,-971.5 964,-971.5"/>
<polyline fill="none" stroke="black" points="964,-971.5 771,-971.5 "/>
<path fill="none" stroke="black" d="M771,-971.5C765,-971.5 759,-965.5 759,-959.5"/>
<polyline fill="none" stroke="black" points="759,-959.5 759,-725.5 "/>
<path fill="none" stroke="black" d="M759,-725.5C759,-719.5 765,-713.5 771,-713.5"/>
<text text-anchor="middle" x="867.5" y="-956.3" font-family="Times,serif" font-size="14.00">Admin::EventsController</text>
<polyline fill="none" stroke="black" points="759,-948.5 976,-948.5 "/>
<text text-anchor="start" x="767" y="-933.3" font-family="Times,serif" font-size="14.00">_one_time_conditions_valid_178?</text>
<text text-anchor="start" x="767" y="-918.3" font-family="Times,serif" font-size="14.00">approved</text>
<text text-anchor="start" x="767" y="-903.3" font-family="Times,serif" font-size="14.00">category</text>
<text text-anchor="start" x="767" y="-888.3" font-family="Times,serif" font-size="14.00">create</text>
<text text-anchor="start" x="767" y="-873.3" font-family="Times,serif" font-size="14.00">destroy</text>
<text text-anchor="start" x="767" y="-858.3" font-family="Times,serif" font-size="14.00">edit</text>
<text text-anchor="start" x="767" y="-843.3" font-family="Times,serif" font-size="14.00">index</text>
<text text-anchor="start" x="767" y="-828.3" font-family="Times,serif" font-size="14.00">locations</text>
<text text-anchor="start" x="767" y="-813.3" font-family="Times,serif" font-size="14.00">new</text>
<text text-anchor="start" x="767" y="-798.3" font-family="Times,serif" font-size="14.00">show</text>
<text text-anchor="start" x="767" y="-783.3" font-family="Times,serif" font-size="14.00">update</text>
<polyline fill="none" stroke="black" points="759,-775.5 976,-775.5 "/>
<polyline fill="none" stroke="black" points="759,-751.5 976,-751.5 "/>
<text text-anchor="start" x="767" y="-736.3" font-family="Times,serif" font-size="14.00">_layout</text>
<text text-anchor="start" x="767" y="-721.3" font-family="Times,serif" font-size="14.00">_run_process_action_callbacks</text>
</g>
<!-- Admin::UserSessionsController -->
<g id="node6" class="node"><title>Admin::UserSessionsController</title>
<polyline fill="none" stroke="black" points="1024,-805.5 1200,-805.5 "/>
<path fill="none" stroke="black" d="M1200,-805.5C1206,-805.5 1212,-811.5 1212,-817.5"/>
<polyline fill="none" stroke="black" points="1212,-817.5 1212,-931.5 "/>
<path fill="none" stroke="black" d="M1212,-931.5C1212,-937.5 1206,-943.5 1200,-943.5"/>
<polyline fill="none" stroke="black" points="1200,-943.5 1024,-943.5 "/>
<path fill="none" stroke="black" d="M1024,-943.5C1018,-943.5 1012,-937.5 1012,-931.5"/>
<polyline fill="none" stroke="black" points="1012,-931.5 1012,-817.5 "/>
<path fill="none" stroke="black" d="M1012,-817.5C1012,-811.5 1018,-805.5 1024,-805.5"/>
<text text-anchor="middle" x="1112" y="-928.3" font-family="Times,serif" font-size="14.00">Admin::UserSessionsController</text>
<polyline fill="none" stroke="black" points="1012,-920.5 1212,-920.5 "/>
<text text-anchor="start" x="1020" y="-905.3" font-family="Times,serif" font-size="14.00">create</text>
<text text-anchor="start" x="1020" y="-890.3" font-family="Times,serif" font-size="14.00">destroy</text>
<text text-anchor="start" x="1020" y="-875.3" font-family="Times,serif" font-size="14.00">new</text>
<polyline fill="none" stroke="black" points="1012,-867.5 1212,-867.5 "/>
<polyline fill="none" stroke="black" points="1012,-843.5 1212,-843.5 "/>
<text text-anchor="start" x="1020" y="-828.3" font-family="Times,serif" font-size="14.00">_layout</text>
<text text-anchor="start" x="1020" y="-813.3" font-family="Times,serif" font-size="14.00">_run_process_action_callbacks</text>
</g>
<!-- Admin::UsersController -->
<g id="node7" class="node"><title>Admin::UsersController</title>
<polyline fill="none" stroke="black" points="932,-92.5 1065,-92.5 "/>
<path fill="none" stroke="black" d="M1065,-92.5C1071,-92.5 1077,-98.5 1077,-104.5"/>
<polyline fill="none" stroke="black" points="1077,-104.5 1077,-308.5 "/>
<path fill="none" stroke="black" d="M1077,-308.5C1077,-314.5 1071,-320.5 1065,-320.5"/>
<polyline fill="none" stroke="black" points="1065,-320.5 932,-320.5 "/>
<path fill="none" stroke="black" d="M932,-320.5C926,-320.5 920,-314.5 920,-308.5"/>
<polyline fill="none" stroke="black" points="920,-308.5 920,-104.5 "/>
<path fill="none" stroke="black" d="M920,-104.5C920,-98.5 926,-92.5 932,-92.5"/>
<text text-anchor="middle" x="998.5" y="-305.3" font-family="Times,serif" font-size="14.00">Admin::UsersController</text>
<polyline fill="none" stroke="black" points="920,-297.5 1077,-297.5 "/>
<text text-anchor="start" x="928" y="-282.3" font-family="Times,serif" font-size="14.00">create</text>
<text text-anchor="start" x="928" y="-267.3" font-family="Times,serif" font-size="14.00">destroy</text>
<text text-anchor="start" x="928" y="-252.3" font-family="Times,serif" font-size="14.00">edit</text>
<text text-anchor="start" x="928" y="-237.3" font-family="Times,serif" font-size="14.00">events</text>
<text text-anchor="start" x="928" y="-222.3" font-family="Times,serif" font-size="14.00">index</text>
<text text-anchor="start" x="928" y="-207.3" font-family="Times,serif" font-size="14.00">messages</text>
<text text-anchor="start" x="928" y="-192.3" font-family="Times,serif" font-size="14.00">new</text>
<text text-anchor="start" x="928" y="-177.3" font-family="Times,serif" font-size="14.00">reminders</text>
<text text-anchor="start" x="928" y="-162.3" font-family="Times,serif" font-size="14.00">show</text>
<text text-anchor="start" x="928" y="-147.3" font-family="Times,serif" font-size="14.00">update</text>
<polyline fill="none" stroke="black" points="920,-139.5 1077,-139.5 "/>
<polyline fill="none" stroke="black" points="920,-115.5 1077,-115.5 "/>
<text text-anchor="start" x="928" y="-100.3" font-family="Times,serif" font-size="14.00">_layout</text>
</g>
<!-- AlarmsController -->
<g id="node8" class="node"><title>AlarmsController</title>
<polyline fill="none" stroke="black" points="12,-483.5 107,-483.5 "/>
<path fill="none" stroke="black" d="M107,-483.5C113,-483.5 119,-489.5 119,-495.5"/>
<polyline fill="none" stroke="black" points="119,-495.5 119,-654.5 "/>
<path fill="none" stroke="black" d="M119,-654.5C119,-660.5 113,-666.5 107,-666.5"/>
<polyline fill="none" stroke="black" points="107,-666.5 12,-666.5 "/>
<path fill="none" stroke="black" d="M12,-666.5C6,-666.5 0,-660.5 0,-654.5"/>
<polyline fill="none" stroke="black" points="0,-654.5 0,-495.5 "/>
<path fill="none" stroke="black" d="M0,-495.5C0,-489.5 6,-483.5 12,-483.5"/>
<text text-anchor="middle" x="59.5" y="-651.3" font-family="Times,serif" font-size="14.00">AlarmsController</text>
<polyline fill="none" stroke="black" points="0,-643.5 119,-643.5 "/>
<text text-anchor="start" x="8" y="-628.3" font-family="Times,serif" font-size="14.00">create</text>
<text text-anchor="start" x="8" y="-613.3" font-family="Times,serif" font-size="14.00">edit</text>
<text text-anchor="start" x="8" y="-598.3" font-family="Times,serif" font-size="14.00">index</text>
<text text-anchor="start" x="8" y="-583.3" font-family="Times,serif" font-size="14.00">proba</text>
<text text-anchor="start" x="8" y="-568.3" font-family="Times,serif" font-size="14.00">proba2</text>
<text text-anchor="start" x="8" y="-553.3" font-family="Times,serif" font-size="14.00">switch</text>
<text text-anchor="start" x="8" y="-538.3" font-family="Times,serif" font-size="14.00">update</text>
<polyline fill="none" stroke="black" points="0,-530.5 119,-530.5 "/>
<polyline fill="none" stroke="black" points="0,-506.5 119,-506.5 "/>
<text text-anchor="start" x="8" y="-491.3" font-family="Times,serif" font-size="14.00">_layout</text>
</g>
<!-- ApplicationController -->
<g id="node9" class="node"><title>ApplicationController</title>
<polyline fill="none" stroke="black" points="426,-299.5 611,-299.5 "/>
<path fill="none" stroke="black" d="M611,-299.5C617,-299.5 623,-305.5 623,-311.5"/>
<polyline fill="none" stroke="black" points="623,-311.5 623,-620.5 "/>
<path fill="none" stroke="black" d="M623,-620.5C623,-626.5 617,-632.5 611,-632.5"/>
<polyline fill="none" stroke="black" points="611,-632.5 426,-632.5 "/>
<path fill="none" stroke="black" d="M426,-632.5C420,-632.5 414,-626.5 414,-620.5"/>
<polyline fill="none" stroke="black" points="414,-620.5 414,-311.5 "/>
<path fill="none" stroke="black" d="M414,-311.5C414,-305.5 420,-299.5 426,-299.5"/>
<text text-anchor="middle" x="518.5" y="-617.3" font-family="Times,serif" font-size="14.00">ApplicationController</text>
<polyline fill="none" stroke="black" points="414,-609.5 623,-609.5 "/>
<text text-anchor="start" x="422" y="-594.3" font-family="Times,serif" font-size="14.00">_one_time_conditions_valid_74?</text>
<text text-anchor="start" x="422" y="-579.3" font-family="Times,serif" font-size="14.00">_one_time_conditions_valid_76?</text>
<text text-anchor="start" x="422" y="-564.3" font-family="Times,serif" font-size="14.00">_one_time_conditions_valid_78?</text>
<text text-anchor="start" x="422" y="-549.3" font-family="Times,serif" font-size="14.00">change_locale</text>
<polyline fill="none" stroke="black" points="414,-541.5 623,-541.5 "/>
<polyline fill="none" stroke="black" points="414,-517.5 623,-517.5 "/>
<text text-anchor="start" x="422" y="-502.3" font-family="Times,serif" font-size="14.00">_layout</text>
<text text-anchor="start" x="422" y="-487.3" font-family="Times,serif" font-size="14.00">_run_process_action_callbacks</text>
<text text-anchor="start" x="422" y="-472.3" font-family="Times,serif" font-size="14.00">coming_soon</text>
<text text-anchor="start" x="422" y="-457.3" font-family="Times,serif" font-size="14.00">create_micropost</text>
<text text-anchor="start" x="422" y="-442.3" font-family="Times,serif" font-size="14.00">current_user</text>
<text text-anchor="start" x="422" y="-427.3" font-family="Times,serif" font-size="14.00">current_user_session</text>
<text text-anchor="start" x="422" y="-412.3" font-family="Times,serif" font-size="14.00">default_url_options</text>
<text text-anchor="start" x="422" y="-397.3" font-family="Times,serif" font-size="14.00">get_events_and_categories</text>
<text text-anchor="start" x="422" y="-382.3" font-family="Times,serif" font-size="14.00">redirect_back_or_default</text>
<text text-anchor="start" x="422" y="-367.3" font-family="Times,serif" font-size="14.00">require_no_user</text>
<text text-anchor="start" x="422" y="-352.3" font-family="Times,serif" font-size="14.00">require_ownership</text>
<text text-anchor="start" x="422" y="-337.3" font-family="Times,serif" font-size="14.00">require_user</text>
<text text-anchor="start" x="422" y="-322.3" font-family="Times,serif" font-size="14.00">set_locale</text>
<text text-anchor="start" x="422" y="-307.3" font-family="Times,serif" font-size="14.00">store_location</text>
</g>
<!-- CommentsController -->
<g id="node10" class="node"><title>CommentsController</title>
<polyline fill="none" stroke="black" points="679,-115.5 872,-115.5 "/>
<path fill="none" stroke="black" d="M872,-115.5C878,-115.5 884,-121.5 884,-127.5"/>
<polyline fill="none" stroke="black" points="884,-127.5 884,-286.5 "/>
<path fill="none" stroke="black" d="M884,-286.5C884,-292.5 878,-298.5 872,-298.5"/>
<polyline fill="none" stroke="black" points="872,-298.5 679,-298.5 "/>
<path fill="none" stroke="black" d="M679,-298.5C673,-298.5 667,-292.5 667,-286.5"/>
<polyline fill="none" stroke="black" points="667,-286.5 667,-127.5 "/>
<path fill="none" stroke="black" d="M667,-127.5C667,-121.5 673,-115.5 679,-115.5"/>
<text text-anchor="middle" x="775.5" y="-283.3" font-family="Times,serif" font-size="14.00">CommentsController</text>
<polyline fill="none" stroke="black" points="667,-275.5 884,-275.5 "/>
<text text-anchor="start" x="675" y="-260.3" font-family="Times,serif" font-size="14.00">_one_time_conditions_valid_392?</text>
<text text-anchor="start" x="675" y="-245.3" font-family="Times,serif" font-size="14.00">_one_time_conditions_valid_396?</text>
<text text-anchor="start" x="675" y="-230.3" font-family="Times,serif" font-size="14.00">_one_time_conditions_valid_402?</text>
<text text-anchor="start" x="675" y="-215.3" font-family="Times,serif" font-size="14.00">create</text>
<text text-anchor="start" x="675" y="-200.3" font-family="Times,serif" font-size="14.00">destroy</text>
<polyline fill="none" stroke="black" points="667,-192.5 884,-192.5 "/>
<polyline fill="none" stroke="black" points="667,-168.5 884,-168.5 "/>
<text text-anchor="start" x="675" y="-153.3" font-family="Times,serif" font-size="14.00">_layout</text>
<text text-anchor="start" x="675" y="-138.3" font-family="Times,serif" font-size="14.00">_run_process_action_callbacks</text>
<text text-anchor="start" x="675" y="-123.3" font-family="Times,serif" font-size="14.00">deletable_comment</text>
</g>
<!-- CommunicationsController -->
<g id="node11" class="node"><title>CommunicationsController</title>
<polyline fill="none" stroke="black" points="932,-368.5 1125,-368.5 "/>
<path fill="none" stroke="black" d="M1125,-368.5C1131,-368.5 1137,-374.5 1137,-380.5"/>
<polyline fill="none" stroke="black" points="1137,-380.5 1137,-509.5 "/>
<path fill="none" stroke="black" d="M1137,-509.5C1137,-515.5 1131,-521.5 1125,-521.5"/>
<polyline fill="none" stroke="black" points="1125,-521.5 932,-521.5 "/>
<path fill="none" stroke="black" d="M932,-521.5C926,-521.5 920,-515.5 920,-509.5"/>
<polyline fill="none" stroke="black" points="920,-509.5 920,-380.5 "/>
<path fill="none" stroke="black" d="M920,-380.5C920,-374.5 926,-368.5 932,-368.5"/>
<text text-anchor="middle" x="1028.5" y="-506.3" font-family="Times,serif" font-size="14.00">CommunicationsController</text>
<polyline fill="none" stroke="black" points="920,-498.5 1137,-498.5 "/>
<text text-anchor="start" x="928" y="-483.3" font-family="Times,serif" font-size="14.00">_one_time_conditions_valid_410?</text>
<text text-anchor="start" x="928" y="-468.3" font-family="Times,serif" font-size="14.00">create</text>
<text text-anchor="start" x="928" y="-453.3" font-family="Times,serif" font-size="14.00">destroy</text>
<text text-anchor="start" x="928" y="-438.3" font-family="Times,serif" font-size="14.00">show</text>
<polyline fill="none" stroke="black" points="920,-430.5 1137,-430.5 "/>
<polyline fill="none" stroke="black" points="920,-406.5 1137,-406.5 "/>
<text text-anchor="start" x="928" y="-391.3" font-family="Times,serif" font-size="14.00">_layout</text>
<text text-anchor="start" x="928" y="-376.3" font-family="Times,serif" font-size="14.00">_run_process_action_callbacks</text>
</g>
<!-- EventsController -->
<g id="node12" class="node"><title>EventsController</title>
<polyline fill="none" stroke="black" points="426,-667.5 619,-667.5 "/>
<path fill="none" stroke="black" d="M619,-667.5C625,-667.5 631,-673.5 631,-679.5"/>
<polyline fill="none" stroke="black" points="631,-679.5 631,-973.5 "/>
<path fill="none" stroke="black" d="M631,-973.5C631,-979.5 625,-985.5 619,-985.5"/>
<polyline fill="none" stroke="black" points="619,-985.5 426,-985.5 "/>
<path fill="none" stroke="black" d="M426,-985.5C420,-985.5 414,-979.5 414,-973.5"/>
<polyline fill="none" stroke="black" points="414,-973.5 414,-679.5 "/>
<path fill="none" stroke="black" d="M414,-679.5C414,-673.5 420,-667.5 426,-667.5"/>
<text text-anchor="middle" x="522.5" y="-970.3" font-family="Times,serif" font-size="14.00">EventsController</text>
<polyline fill="none" stroke="black" points="414,-962.5 631,-962.5 "/>
<text text-anchor="start" x="422" y="-947.3" font-family="Times,serif" font-size="14.00">_one_time_conditions_valid_412?</text>
<text text-anchor="start" x="422" y="-932.3" font-family="Times,serif" font-size="14.00">_one_time_conditions_valid_416?</text>
<text text-anchor="start" x="422" y="-917.3" font-family="Times,serif" font-size="14.00">_one_time_conditions_valid_422?</text>
<text text-anchor="start" x="422" y="-902.3" font-family="Times,serif" font-size="14.00">category</text>
<text text-anchor="start" x="422" y="-887.3" font-family="Times,serif" font-size="14.00">create</text>
<text text-anchor="start" x="422" y="-872.3" font-family="Times,serif" font-size="14.00">deletable_comment</text>
<text text-anchor="start" x="422" y="-857.3" font-family="Times,serif" font-size="14.00">destroy</text>
<text text-anchor="start" x="422" y="-842.3" font-family="Times,serif" font-size="14.00">edit</text>
<text text-anchor="start" x="422" y="-827.3" font-family="Times,serif" font-size="14.00">index</text>
<text text-anchor="start" x="422" y="-812.3" font-family="Times,serif" font-size="14.00">locations</text>
<text text-anchor="start" x="422" y="-797.3" font-family="Times,serif" font-size="14.00">new</text>
<text text-anchor="start" x="422" y="-782.3" font-family="Times,serif" font-size="14.00">remind_users</text>
<text text-anchor="start" x="422" y="-767.3" font-family="Times,serif" font-size="14.00">resubmit</text>
<text text-anchor="start" x="422" y="-752.3" font-family="Times,serif" font-size="14.00">show</text>
<text text-anchor="start" x="422" y="-737.3" font-family="Times,serif" font-size="14.00">update</text>
<polyline fill="none" stroke="black" points="414,-729.5 631,-729.5 "/>
<polyline fill="none" stroke="black" points="414,-705.5 631,-705.5 "/>
<text text-anchor="start" x="422" y="-690.3" font-family="Times,serif" font-size="14.00">_layout</text>
<text text-anchor="start" x="422" y="-675.3" font-family="Times,serif" font-size="14.00">_run_process_action_callbacks</text>
</g>
<!-- FollowingsController -->
<g id="node13" class="node"><title>FollowingsController</title>
<polyline fill="none" stroke="black" points="173,-621.5 366,-621.5 "/>
<path fill="none" stroke="black" d="M366,-621.5C372,-621.5 378,-627.5 378,-633.5"/>
<polyline fill="none" stroke="black" points="378,-633.5 378,-792.5 "/>
<path fill="none" stroke="black" d="M378,-792.5C378,-798.5 372,-804.5 366,-804.5"/>
<polyline fill="none" stroke="black" points="366,-804.5 173,-804.5 "/>
<path fill="none" stroke="black" d="M173,-804.5C167,-804.5 161,-798.5 161,-792.5"/>
<polyline fill="none" stroke="black" points="161,-792.5 161,-633.5 "/>
<path fill="none" stroke="black" d="M161,-633.5C161,-627.5 167,-621.5 173,-621.5"/>
<text text-anchor="middle" x="269.5" y="-789.3" font-family="Times,serif" font-size="14.00">FollowingsController</text>
<polyline fill="none" stroke="black" points="161,-781.5 378,-781.5 "/>
<text text-anchor="start" x="169" y="-766.3" font-family="Times,serif" font-size="14.00">_one_time_conditions_valid_430?</text>
<text text-anchor="start" x="169" y="-751.3" font-family="Times,serif" font-size="14.00">_one_time_conditions_valid_434?</text>
<text text-anchor="start" x="169" y="-736.3" font-family="Times,serif" font-size="14.00">_one_time_conditions_valid_440?</text>
<text text-anchor="start" x="169" y="-721.3" font-family="Times,serif" font-size="14.00">create</text>
<text text-anchor="start" x="169" y="-706.3" font-family="Times,serif" font-size="14.00">destroy</text>
<polyline fill="none" stroke="black" points="161,-698.5 378,-698.5 "/>
<polyline fill="none" stroke="black" points="161,-674.5 378,-674.5 "/>
<text text-anchor="start" x="169" y="-659.3" font-family="Times,serif" font-size="14.00">_layout</text>
<text text-anchor="start" x="169" y="-644.3" font-family="Times,serif" font-size="14.00">_run_process_action_callbacks</text>
<text text-anchor="start" x="169" y="-629.3" font-family="Times,serif" font-size="14.00">require_following_ownership</text>
</g>
<!-- MicropostsController -->
<g id="node14" class="node"><title>MicropostsController</title>
<polyline fill="none" stroke="black" points="173,-184.5 366,-184.5 "/>
<path fill="none" stroke="black" d="M366,-184.5C372,-184.5 378,-190.5 378,-196.5"/>
<polyline fill="none" stroke="black" points="378,-196.5 378,-325.5 "/>
<path fill="none" stroke="black" d="M378,-325.5C378,-331.5 372,-337.5 366,-337.5"/>
<polyline fill="none" stroke="black" points="366,-337.5 173,-337.5 "/>
<path fill="none" stroke="black" d="M173,-337.5C167,-337.5 161,-331.5 161,-325.5"/>
<polyline fill="none" stroke="black" points="161,-325.5 161,-196.5 "/>
<path fill="none" stroke="black" d="M161,-196.5C161,-190.5 167,-184.5 173,-184.5"/>
<text text-anchor="middle" x="269.5" y="-322.3" font-family="Times,serif" font-size="14.00">MicropostsController</text>
<polyline fill="none" stroke="black" points="161,-314.5 378,-314.5 "/>
<text text-anchor="start" x="169" y="-299.3" font-family="Times,serif" font-size="14.00">_one_time_conditions_valid_446?</text>
<text text-anchor="start" x="169" y="-284.3" font-family="Times,serif" font-size="14.00">create</text>
<text text-anchor="start" x="169" y="-269.3" font-family="Times,serif" font-size="14.00">destroy</text>
<text text-anchor="start" x="169" y="-254.3" font-family="Times,serif" font-size="14.00">new</text>
<polyline fill="none" stroke="black" points="161,-246.5 378,-246.5 "/>
<polyline fill="none" stroke="black" points="161,-222.5 378,-222.5 "/>
<text text-anchor="start" x="169" y="-207.3" font-family="Times,serif" font-size="14.00">_layout</text>
<text text-anchor="start" x="169" y="-192.3" font-family="Times,serif" font-size="14.00">_run_process_action_callbacks</text>
</g>
<!-- PasswordResetsController -->
<g id="node15" class="node"><title>PasswordResetsController</title>
<polyline fill="none" stroke="black" points="173,-851.5 367,-851.5 "/>
<path fill="none" stroke="black" d="M367,-851.5C373,-851.5 379,-857.5 379,-863.5"/>
<polyline fill="none" stroke="black" points="379,-863.5 379,-1037.5 "/>
<path fill="none" stroke="black" d="M379,-1037.5C379,-1043.5 373,-1049.5 367,-1049.5"/>
<polyline fill="none" stroke="black" points="367,-1049.5 173,-1049.5 "/>
<path fill="none" stroke="black" d="M173,-1049.5C167,-1049.5 161,-1043.5 161,-1037.5"/>
<polyline fill="none" stroke="black" points="161,-1037.5 161,-863.5 "/>
<path fill="none" stroke="black" d="M161,-863.5C161,-857.5 167,-851.5 173,-851.5"/>
<text text-anchor="middle" x="270" y="-1034.3" font-family="Times,serif" font-size="14.00">PasswordResetsController</text>
<polyline fill="none" stroke="black" points="161,-1026.5 379,-1026.5 "/>
<text text-anchor="start" x="169" y="-1011.3" font-family="Times,serif" font-size="14.00">_one_time_conditions_valid_448?</text>
<text text-anchor="start" x="169" y="-996.3" font-family="Times,serif" font-size="14.00">_one_time_conditions_valid_452?</text>
<text text-anchor="start" x="169" y="-981.3" font-family="Times,serif" font-size="14.00">create</text>
<text text-anchor="start" x="169" y="-966.3" font-family="Times,serif" font-size="14.00">edit</text>
<text text-anchor="start" x="169" y="-951.3" font-family="Times,serif" font-size="14.00">new</text>
<text text-anchor="start" x="169" y="-936.3" font-family="Times,serif" font-size="14.00">update</text>
<polyline fill="none" stroke="black" points="161,-928.5 379,-928.5 "/>
<polyline fill="none" stroke="black" points="161,-904.5 379,-904.5 "/>
<text text-anchor="start" x="169" y="-889.3" font-family="Times,serif" font-size="14.00">_layout</text>
<text text-anchor="start" x="169" y="-874.3" font-family="Times,serif" font-size="14.00">_run_process_action_callbacks</text>
<text text-anchor="start" x="169" y="-859.3" font-family="Times,serif" font-size="14.00">load_user_using_perishable_token</text>
</g>
<!-- ReminderController -->
<g id="node16" class="node"><title>ReminderController</title>
<polyline fill="none" stroke="black" points="426,-115.5 619,-115.5 "/>
<path fill="none" stroke="black" d="M619,-115.5C625,-115.5 631,-121.5 631,-127.5"/>
<polyline fill="none" stroke="black" points="631,-127.5 631,-241.5 "/>
<path fill="none" stroke="black" d="M631,-241.5C631,-247.5 625,-253.5 619,-253.5"/>
<polyline fill="none" stroke="black" points="619,-253.5 426,-253.5 "/>
<path fill="none" stroke="black" d="M426,-253.5C420,-253.5 414,-247.5 414,-241.5"/>
<polyline fill="none" stroke="black" points="414,-241.5 414,-127.5 "/>
<path fill="none" stroke="black" d="M414,-127.5C414,-121.5 420,-115.5 426,-115.5"/>
<text text-anchor="middle" x="522.5" y="-238.3" font-family="Times,serif" font-size="14.00">ReminderController</text>
<polyline fill="none" stroke="black" points="414,-230.5 631,-230.5 "/>
<text text-anchor="start" x="422" y="-215.3" font-family="Times,serif" font-size="14.00">_one_time_conditions_valid_456?</text>
<text text-anchor="start" x="422" y="-200.3" font-family="Times,serif" font-size="14.00">add</text>
<text text-anchor="start" x="422" y="-185.3" font-family="Times,serif" font-size="14.00">delete</text>
<polyline fill="none" stroke="black" points="414,-177.5 631,-177.5 "/>
<polyline fill="none" stroke="black" points="414,-153.5 631,-153.5 "/>
<text text-anchor="start" x="422" y="-138.3" font-family="Times,serif" font-size="14.00">_layout</text>
<text text-anchor="start" x="422" y="-123.3" font-family="Times,serif" font-size="14.00">_run_process_action_callbacks</text>
</g>
<!-- TranslationsController -->
<g id="node17" class="node"><title>TranslationsController</title>
<polyline fill="none" stroke="black" points="173,-391.5 366,-391.5 "/>
<path fill="none" stroke="black" d="M366,-391.5C372,-391.5 378,-397.5 378,-403.5"/>
<polyline fill="none" stroke="black" points="378,-403.5 378,-562.5 "/>
<path fill="none" stroke="black" d="M378,-562.5C378,-568.5 372,-574.5 366,-574.5"/>
<polyline fill="none" stroke="black" points="366,-574.5 173,-574.5 "/>
<path fill="none" stroke="black" d="M173,-574.5C167,-574.5 161,-568.5 161,-562.5"/>
<polyline fill="none" stroke="black" points="161,-562.5 161,-403.5 "/>
<path fill="none" stroke="black" d="M161,-403.5C161,-397.5 167,-391.5 173,-391.5"/>
<text text-anchor="middle" x="269.5" y="-559.3" font-family="Times,serif" font-size="14.00">TranslationsController</text>
<polyline fill="none" stroke="black" points="161,-551.5 378,-551.5 "/>
<text text-anchor="start" x="169" y="-536.3" font-family="Times,serif" font-size="14.00">_one_time_conditions_valid_466?</text>
<text text-anchor="start" x="169" y="-521.3" font-family="Times,serif" font-size="14.00">commit</text>
<text text-anchor="start" x="169" y="-506.3" font-family="Times,serif" font-size="14.00">create</text>
<text text-anchor="start" x="169" y="-491.3" font-family="Times,serif" font-size="14.00">destroy</text>
<text text-anchor="start" x="169" y="-476.3" font-family="Times,serif" font-size="14.00">new</text>
<text text-anchor="start" x="169" y="-461.3" font-family="Times,serif" font-size="14.00">show</text>
<polyline fill="none" stroke="black" points="161,-453.5 378,-453.5 "/>
<polyline fill="none" stroke="black" points="161,-429.5 378,-429.5 "/>
<text text-anchor="start" x="169" y="-414.3" font-family="Times,serif" font-size="14.00">_layout</text>
<text text-anchor="start" x="169" y="-399.3" font-family="Times,serif" font-size="14.00">_run_process_action_callbacks</text>
</g>
<!-- UserSessionsController -->
<g id="node18" class="node"><title>UserSessionsController</title>
<polyline fill="none" stroke="black" points="863,-1012.5 991,-1012.5 "/>
<path fill="none" stroke="black" d="M991,-1012.5C997,-1012.5 1003,-1018.5 1003,-1024.5"/>
<polyline fill="none" stroke="black" points="1003,-1024.5 1003,-1123.5 "/>
<path fill="none" stroke="black" d="M1003,-1123.5C1003,-1129.5 997,-1135.5 991,-1135.5"/>
<polyline fill="none" stroke="black" points="991,-1135.5 863,-1135.5 "/>
<path fill="none" stroke="black" d="M863,-1135.5C857,-1135.5 851,-1129.5 851,-1123.5"/>
<polyline fill="none" stroke="black" points="851,-1123.5 851,-1024.5 "/>
<path fill="none" stroke="black" d="M851,-1024.5C851,-1018.5 857,-1012.5 863,-1012.5"/>
<text text-anchor="middle" x="927" y="-1120.3" font-family="Times,serif" font-size="14.00">UserSessionsController</text>
<polyline fill="none" stroke="black" points="851,-1112.5 1003,-1112.5 "/>
<text text-anchor="start" x="859" y="-1097.3" font-family="Times,serif" font-size="14.00">create</text>
<text text-anchor="start" x="859" y="-1082.3" font-family="Times,serif" font-size="14.00">destroy</text>
<text text-anchor="start" x="859" y="-1067.3" font-family="Times,serif" font-size="14.00">new</text>
<polyline fill="none" stroke="black" points="851,-1059.5 1003,-1059.5 "/>
<polyline fill="none" stroke="black" points="851,-1035.5 1003,-1035.5 "/>
<text text-anchor="start" x="859" y="-1020.3" font-family="Times,serif" font-size="14.00">_layout</text>
</g>
<!-- UsersController -->
<g id="node19" class="node"><title>UsersController</title>
<polyline fill="none" stroke="black" points="679,-345.5 872,-345.5 "/>
<path fill="none" stroke="black" d="M872,-345.5C878,-345.5 884,-351.5 884,-357.5"/>
<polyline fill="none" stroke="black" points="884,-357.5 884,-651.5 "/>
<path fill="none" stroke="black" d="M884,-651.5C884,-657.5 878,-663.5 872,-663.5"/>
<polyline fill="none" stroke="black" points="872,-663.5 679,-663.5 "/>
<path fill="none" stroke="black" d="M679,-663.5C673,-663.5 667,-657.5 667,-651.5"/>
<polyline fill="none" stroke="black" points="667,-651.5 667,-357.5 "/>
<path fill="none" stroke="black" d="M667,-357.5C667,-351.5 673,-345.5 679,-345.5"/>
<text text-anchor="middle" x="775.5" y="-648.3" font-family="Times,serif" font-size="14.00">UsersController</text>
<polyline fill="none" stroke="black" points="667,-640.5 884,-640.5 "/>
<text text-anchor="start" x="675" y="-625.3" font-family="Times,serif" font-size="14.00">_one_time_conditions_valid_470?</text>
<text text-anchor="start" x="675" y="-610.3" font-family="Times,serif" font-size="14.00">_one_time_conditions_valid_474?</text>
<text text-anchor="start" x="675" y="-595.3" font-family="Times,serif" font-size="14.00">account_locked</text>
<text text-anchor="start" x="675" y="-580.3" font-family="Times,serif" font-size="14.00">create</text>
<text text-anchor="start" x="675" y="-565.3" font-family="Times,serif" font-size="14.00">destroy</text>
<text text-anchor="start" x="675" y="-550.3" font-family="Times,serif" font-size="14.00">edit</text>
<text text-anchor="start" x="675" y="-535.3" font-family="Times,serif" font-size="14.00">events</text>
<text text-anchor="start" x="675" y="-520.3" font-family="Times,serif" font-size="14.00">get_current_user</text>
<text text-anchor="start" x="675" y="-505.3" font-family="Times,serif" font-size="14.00">index</text>
<text text-anchor="start" x="675" y="-490.3" font-family="Times,serif" font-size="14.00">messages</text>
<text text-anchor="start" x="675" y="-475.3" font-family="Times,serif" font-size="14.00">microposts</text>
<text text-anchor="start" x="675" y="-460.3" font-family="Times,serif" font-size="14.00">new</text>
<text text-anchor="start" x="675" y="-445.3" font-family="Times,serif" font-size="14.00">reminders</text>
<text text-anchor="start" x="675" y="-430.3" font-family="Times,serif" font-size="14.00">show</text>
<text text-anchor="start" x="675" y="-415.3" font-family="Times,serif" font-size="14.00">update</text>
<polyline fill="none" stroke="black" points="667,-407.5 884,-407.5 "/>
<polyline fill="none" stroke="black" points="667,-383.5 884,-383.5 "/>
<text text-anchor="start" x="675" y="-368.3" font-family="Times,serif" font-size="14.00">_layout</text>
<text text-anchor="start" x="675" y="-353.3" font-family="Times,serif" font-size="14.00">_run_process_action_callbacks</text>
</g>
</g>
</svg>
