<?xml version="1.0" encoding="UTF-8" standalone="no"?>
<!DOCTYPE svg PUBLIC "-//W3C//DTD SVG 1.1//EN"
 "http://www.w3.org/Graphics/SVG/1.1/DTD/svg11.dtd">
<!-- Generated by graphviz version 2.28.0 (20120402.2051)
 -->
<!-- Title: models_diagram Pages: 1 -->
<svg width="663pt" height="1032pt"
 viewBox="0.00 0.00 663.00 1032.00" xmlns="http://www.w3.org/2000/svg" xmlns:xlink="http://www.w3.org/1999/xlink">
<g id="graph1" class="graph" transform="scale(1 1) rotate(0) translate(4 1028)">
<title>models_diagram</title>
<polygon fill="white" stroke="white" points="-4,5 -4,-1028 660,-1028 660,5 -4,5"/>
<!-- _diagram_info -->
<g id="node1" class="node"><title>_diagram_info</title>
<text text-anchor="start" x="8" y="-1009.6" font-family="Times,serif" font-size="13.00">Models diagram</text>
<text text-anchor="start" x="8" y="-995.6" font-family="Times,serif" font-size="13.00">Date: Apr 02 2012 &#45; 23:02</text>
<text text-anchor="start" x="8" y="-981.6" font-family="Times,serif" font-size="13.00">Migration version: 20120329083621</text>
<text text-anchor="start" x="8" y="-967.6" font-family="Times,serif" font-size="13.00">Generated by RailRoady 1.0.7</text>
<text text-anchor="start" x="8" y="-953.6" font-family="Times,serif" font-size="13.00">http://railroady.prestonlee.com</text>
</g>
<!-- Category -->
<g id="node2" class="node"><title>Category</title>
<polyline fill="none" stroke="black" points="238.5,-947 349.5,-947 "/>
<path fill="none" stroke="black" d="M349.5,-947C355.5,-947 361.5,-953 361.5,-959"/>
<polyline fill="none" stroke="black" points="361.5,-959 361.5,-1011 "/>
<path fill="none" stroke="black" d="M361.5,-1011C361.5,-1017 355.5,-1023 349.5,-1023"/>
<polyline fill="none" stroke="black" points="349.5,-1023 238.5,-1023 "/>
<path fill="none" stroke="black" d="M238.5,-1023C232.5,-1023 226.5,-1017 226.5,-1011"/>
<polyline fill="none" stroke="black" points="226.5,-1011 226.5,-959 "/>
<path fill="none" stroke="black" d="M226.5,-959C226.5,-953 232.5,-947 238.5,-947"/>
<text text-anchor="middle" x="294" y="-1007.8" font-family="Times,serif" font-size="14.00">Category</text>
<polyline fill="none" stroke="black" points="226.5,-1000 361.5,-1000 "/>
<text text-anchor="start" x="234.5" y="-984.8" font-family="Times,serif" font-size="14.00">name :string</text>
<text text-anchor="start" x="234.5" y="-969.8" font-family="Times,serif" font-size="14.00">created_at :datetime</text>
<text text-anchor="start" x="234.5" y="-954.8" font-family="Times,serif" font-size="14.00">updated_at :datetime</text>
</g>
<!-- Event -->
<g id="node5" class="node"><title>Event</title>
<polyline fill="none" stroke="black" points="226,-501 362,-501 "/>
<path fill="none" stroke="black" d="M362,-501C368,-501 374,-507 374,-513"/>
<polyline fill="none" stroke="black" points="374,-513 374,-895 "/>
<path fill="none" stroke="black" d="M374,-895C374,-901 368,-907 362,-907"/>
<polyline fill="none" stroke="black" points="362,-907 226,-907 "/>
<path fill="none" stroke="black" d="M226,-907C220,-907 214,-901 214,-895"/>
<polyline fill="none" stroke="black" points="214,-895 214,-513 "/>
<path fill="none" stroke="black" d="M214,-513C214,-507 220,-501 226,-501"/>
<text text-anchor="middle" x="294" y="-891.8" font-family="Times,serif" font-size="14.00">Event</text>
<polyline fill="none" stroke="black" points="214,-884 374,-884 "/>
<text text-anchor="start" x="222" y="-868.8" font-family="Times,serif" font-size="14.00">title :string</text>
<text text-anchor="start" x="222" y="-853.8" font-family="Times,serif" font-size="14.00">startDate :datetime</text>
<text text-anchor="start" x="222" y="-838.8" font-family="Times,serif" font-size="14.00">finishDate :datetime</text>
<text text-anchor="start" x="222" y="-823.8" font-family="Times,serif" font-size="14.00">place :string</text>
<text text-anchor="start" x="222" y="-808.8" font-family="Times,serif" font-size="14.00">town :string</text>
<text text-anchor="start" x="222" y="-793.8" font-family="Times,serif" font-size="14.00">province :string</text>
<text text-anchor="start" x="222" y="-778.8" font-family="Times,serif" font-size="14.00">price :decimal</text>
<text text-anchor="start" x="222" y="-763.8" font-family="Times,serif" font-size="14.00">description :text</text>
<text text-anchor="start" x="222" y="-748.8" font-family="Times,serif" font-size="14.00">email :string</text>
<text text-anchor="start" x="222" y="-733.8" font-family="Times,serif" font-size="14.00">website :string</text>
<text text-anchor="start" x="222" y="-718.8" font-family="Times,serif" font-size="14.00">phone :string</text>
<text text-anchor="start" x="222" y="-703.8" font-family="Times,serif" font-size="14.00">created_at :datetime</text>
<text text-anchor="start" x="222" y="-688.8" font-family="Times,serif" font-size="14.00">updated_at :datetime</text>
<text text-anchor="start" x="222" y="-673.8" font-family="Times,serif" font-size="14.00">pic_file_name :string</text>
<text text-anchor="start" x="222" y="-658.8" font-family="Times,serif" font-size="14.00">pic_content_type :string</text>
<text text-anchor="start" x="222" y="-643.8" font-family="Times,serif" font-size="14.00">pic_file_size :integer</text>
<text text-anchor="start" x="222" y="-628.8" font-family="Times,serif" font-size="14.00">pic_updated_at :datetime</text>
<text text-anchor="start" x="222" y="-613.8" font-family="Times,serif" font-size="14.00">latitude :float</text>
<text text-anchor="start" x="222" y="-598.8" font-family="Times,serif" font-size="14.00">longitude :float</text>
<text text-anchor="start" x="222" y="-583.8" font-family="Times,serif" font-size="14.00">gmaps :boolean</text>
<text text-anchor="start" x="222" y="-568.8" font-family="Times,serif" font-size="14.00">address :string</text>
<text text-anchor="start" x="222" y="-553.8" font-family="Times,serif" font-size="14.00">des_es :text</text>
<text text-anchor="start" x="222" y="-538.8" font-family="Times,serif" font-size="14.00">des_eu :text</text>
<text text-anchor="start" x="222" y="-523.8" font-family="Times,serif" font-size="14.00">des_en :text</text>
<text text-anchor="start" x="222" y="-508.8" font-family="Times,serif" font-size="14.00">des_fr :text</text>
</g>
<!-- Category&#45;&gt;Event -->
<g id="edge2" class="edge"><title>Category&#45;&gt;Event</title>
<path fill="none" stroke="#825fde" d="M294,-936.788C294,-930.713 294,-924.215 294,-917.393"/>
<polygon fill="#825fde" stroke="#825fde" points="294,-936.951 289.5,-946.951 294,-941.951 294,-946.951 294,-946.951 294,-946.951 294,-941.951 298.5,-946.951 294,-936.951 294,-936.951"/>
<polygon fill="#825fde" stroke="#825fde" points="294,-917.179 298.5,-907.179 294,-912.179 294,-907.179 294,-907.179 294,-907.179 294,-912.179 289.5,-907.179 294,-917.179 294,-917.179"/>
</g>
<!-- Comment -->
<g id="node3" class="node"><title>Comment</title>
<polyline fill="none" stroke="black" points="73.5,-23.5 184.5,-23.5 "/>
<path fill="none" stroke="black" d="M184.5,-23.5C190.5,-23.5 196.5,-29.5 196.5,-35.5"/>
<polyline fill="none" stroke="black" points="196.5,-35.5 196.5,-102.5 "/>
<path fill="none" stroke="black" d="M196.5,-102.5C196.5,-108.5 190.5,-114.5 184.5,-114.5"/>
<polyline fill="none" stroke="black" points="184.5,-114.5 73.5,-114.5 "/>
<path fill="none" stroke="black" d="M73.5,-114.5C67.5,-114.5 61.5,-108.5 61.5,-102.5"/>
<polyline fill="none" stroke="black" points="61.5,-102.5 61.5,-35.5 "/>
<path fill="none" stroke="black" d="M61.5,-35.5C61.5,-29.5 67.5,-23.5 73.5,-23.5"/>
<text text-anchor="middle" x="129" y="-99.3" font-family="Times,serif" font-size="14.00">Comment</text>
<polyline fill="none" stroke="black" points="61.5,-91.5 196.5,-91.5 "/>
<text text-anchor="start" x="69.5" y="-76.3" font-family="Times,serif" font-size="14.00">body :text</text>
<text text-anchor="start" x="69.5" y="-61.3" font-family="Times,serif" font-size="14.00">created_at :datetime</text>
<text text-anchor="start" x="69.5" y="-46.3" font-family="Times,serif" font-size="14.00">updated_at :datetime</text>
<text text-anchor="start" x="69.5" y="-31.3" font-family="Times,serif" font-size="14.00">banned :boolean</text>
</g>
<!-- Communication -->
<g id="node4" class="node"><title>Communication</title>
<polyline fill="none" stroke="black" points="226.5,-31 337.5,-31 "/>
<path fill="none" stroke="black" d="M337.5,-31C343.5,-31 349.5,-37 349.5,-43"/>
<polyline fill="none" stroke="black" points="349.5,-43 349.5,-95 "/>
<path fill="none" stroke="black" d="M349.5,-95C349.5,-101 343.5,-107 337.5,-107"/>
<polyline fill="none" stroke="black" points="337.5,-107 226.5,-107 "/>
<path fill="none" stroke="black" d="M226.5,-107C220.5,-107 214.5,-101 214.5,-95"/>
<polyline fill="none" stroke="black" points="214.5,-95 214.5,-43 "/>
<path fill="none" stroke="black" d="M214.5,-43C214.5,-37 220.5,-31 226.5,-31"/>
<text text-anchor="middle" x="282" y="-91.8" font-family="Times,serif" font-size="14.00">Communication</text>
<polyline fill="none" stroke="black" points="214.5,-84 349.5,-84 "/>
<text text-anchor="start" x="222.5" y="-68.8" font-family="Times,serif" font-size="14.00">body :text</text>
<text text-anchor="start" x="222.5" y="-53.8" font-family="Times,serif" font-size="14.00">created_at :datetime</text>
<text text-anchor="start" x="222.5" y="-38.8" font-family="Times,serif" font-size="14.00">updated_at :datetime</text>
</g>
<!-- Event&#45;&gt;Comment -->
<g id="edge6" class="edge"><title>Event&#45;&gt;Comment</title>
<path fill="none" stroke="#d986d2" d="M217.239,-493.035C212.514,-477.871 208.043,-462.748 204,-448 172.914,-334.61 149.164,-198.771 137.328,-124.736"/>
<ellipse fill="none" stroke="#d986d2" cx="218.533" cy="-497.15" rx="4.00001" ry="4.00001"/>
<polygon fill="#d986d2" stroke="#d986d2" points="137.304,-124.585 140.181,-114.004 136.52,-119.647 135.737,-114.709 135.737,-114.709 135.737,-114.709 136.52,-119.647 131.292,-115.414 137.304,-124.585 137.304,-124.585"/>
</g>
<!-- Translation -->
<g id="node7" class="node"><title>Translation</title>
<polyline fill="none" stroke="black" points="532.5,-1 643.5,-1 "/>
<path fill="none" stroke="black" d="M643.5,-1C649.5,-1 655.5,-7 655.5,-13"/>
<polyline fill="none" stroke="black" points="655.5,-13 655.5,-125 "/>
<path fill="none" stroke="black" d="M655.5,-125C655.5,-131 649.5,-137 643.5,-137"/>
<polyline fill="none" stroke="black" points="643.5,-137 532.5,-137 "/>
<path fill="none" stroke="black" d="M532.5,-137C526.5,-137 520.5,-131 520.5,-125"/>
<polyline fill="none" stroke="black" points="520.5,-125 520.5,-13 "/>
<path fill="none" stroke="black" d="M520.5,-13C520.5,-7 526.5,-1 532.5,-1"/>
<text text-anchor="middle" x="588" y="-121.8" font-family="Times,serif" font-size="14.00">Translation</text>
<polyline fill="none" stroke="black" points="520.5,-114 655.5,-114 "/>
<text text-anchor="start" x="528.5" y="-98.8" font-family="Times,serif" font-size="14.00">des_es :text</text>
<text text-anchor="start" x="528.5" y="-83.8" font-family="Times,serif" font-size="14.00">des_eu :text</text>
<text text-anchor="start" x="528.5" y="-68.8" font-family="Times,serif" font-size="14.00">des_fr :text</text>
<text text-anchor="start" x="528.5" y="-53.8" font-family="Times,serif" font-size="14.00">des_en :text</text>
<text text-anchor="start" x="528.5" y="-38.8" font-family="Times,serif" font-size="14.00">comment :text</text>
<text text-anchor="start" x="528.5" y="-23.8" font-family="Times,serif" font-size="14.00">created_at :datetime</text>
<text text-anchor="start" x="528.5" y="-8.8" font-family="Times,serif" font-size="14.00">updated_at :datetime</text>
</g>
<!-- Event&#45;&gt;Translation -->
<g id="edge8" class="edge"><title>Event&#45;&gt;Translation</title>
<path fill="none" stroke="#ebad26" d="M378.979,-557.417C394.699,-536.722 412.165,-516.799 431,-500 468.385,-466.656 501.874,-488.757 531,-448 594.249,-359.493 599.871,-229.358 595.732,-147.188"/>
<ellipse fill="none" stroke="#ebad26" cx="376.553" cy="-560.659" rx="4.00002" ry="4.00002"/>
<polygon fill="#ebad26" stroke="#ebad26" points="595.73,-147.147 599.659,-136.91 595.448,-142.155 595.167,-137.163 595.167,-137.163 595.167,-137.163 595.448,-142.155 590.674,-137.416 595.73,-147.147 595.73,-147.147"/>
</g>
<!-- User -->
<g id="node8" class="node"><title>User</title>
<polyline fill="none" stroke="black" points="225,-176.5 365,-176.5 "/>
<path fill="none" stroke="black" d="M365,-176.5C371,-176.5 377,-182.5 377,-188.5"/>
<polyline fill="none" stroke="black" points="377,-188.5 377,-435.5 "/>
<path fill="none" stroke="black" d="M377,-435.5C377,-441.5 371,-447.5 365,-447.5"/>
<polyline fill="none" stroke="black" points="365,-447.5 225,-447.5 "/>
<path fill="none" stroke="black" d="M225,-447.5C219,-447.5 213,-441.5 213,-435.5"/>
<polyline fill="none" stroke="black" points="213,-435.5 213,-188.5 "/>
<path fill="none" stroke="black" d="M213,-188.5C213,-182.5 219,-176.5 225,-176.5"/>
<text text-anchor="middle" x="295" y="-432.3" font-family="Times,serif" font-size="14.00">User</text>
<polyline fill="none" stroke="black" points="213,-424.5 377,-424.5 "/>
<text text-anchor="start" x="221" y="-409.3" font-family="Times,serif" font-size="14.00">name :string</text>
<text text-anchor="start" x="221" y="-394.3" font-family="Times,serif" font-size="14.00">email :string</text>
<text text-anchor="start" x="221" y="-379.3" font-family="Times,serif" font-size="14.00">town :string</text>
<text text-anchor="start" x="221" y="-364.3" font-family="Times,serif" font-size="14.00">province :string</text>
<text text-anchor="start" x="221" y="-349.3" font-family="Times,serif" font-size="14.00">website :string</text>
<text text-anchor="start" x="221" y="-334.3" font-family="Times,serif" font-size="14.00">created_at :datetime</text>
<text text-anchor="start" x="221" y="-319.3" font-family="Times,serif" font-size="14.00">updated_at :datetime</text>
<text text-anchor="start" x="221" y="-304.3" font-family="Times,serif" font-size="14.00">pic_file_name :string</text>
<text text-anchor="start" x="221" y="-289.3" font-family="Times,serif" font-size="14.00">pic_content_type :string</text>
<text text-anchor="start" x="221" y="-274.3" font-family="Times,serif" font-size="14.00">pic_file_size :integer</text>
<text text-anchor="start" x="221" y="-259.3" font-family="Times,serif" font-size="14.00">pic_updated_at :datetime</text>
<text text-anchor="start" x="221" y="-244.3" font-family="Times,serif" font-size="14.00">crypted_password :string</text>
<text text-anchor="start" x="221" y="-229.3" font-family="Times,serif" font-size="14.00">persistence_token :string</text>
<text text-anchor="start" x="221" y="-214.3" font-family="Times,serif" font-size="14.00">admin :boolean</text>
<text text-anchor="start" x="221" y="-199.3" font-family="Times,serif" font-size="14.00">locale :string</text>
<text text-anchor="start" x="221" y="-184.3" font-family="Times,serif" font-size="14.00">perishable_token :string</text>
</g>
<!-- Event&#45;&gt;User -->
<g id="edge4" class="edge"><title>Event&#45;&gt;User</title>
<path fill="none" stroke="#98f32a" d="M291.83,-490.749C291.865,-482.391 291.92,-474.117 292,-466 292.027,-463.291 292.056,-460.556 292.087,-457.8"/>
<polygon fill="#98f32a" stroke="#98f32a" points="291.83,-490.981 287.298,-500.966 291.814,-495.981 291.798,-500.981 291.798,-500.981 291.798,-500.981 291.814,-495.981 296.298,-500.995 291.83,-490.981 291.83,-490.981"/>
<polygon fill="#98f32a" stroke="#98f32a" points="292.088,-457.743 296.711,-447.799 292.15,-452.743 292.212,-447.743 292.212,-447.743 292.212,-447.743 292.15,-452.743 287.712,-447.688 292.088,-457.743 292.088,-457.743"/>
</g>
<!-- Following -->
<g id="node6" class="node"><title>Following</title>
<polyline fill="none" stroke="black" points="379.5,-38.5 490.5,-38.5 "/>
<path fill="none" stroke="black" d="M490.5,-38.5C496.5,-38.5 502.5,-44.5 502.5,-50.5"/>
<polyline fill="none" stroke="black" points="502.5,-50.5 502.5,-87.5 "/>
<path fill="none" stroke="black" d="M502.5,-87.5C502.5,-93.5 496.5,-99.5 490.5,-99.5"/>
<polyline fill="none" stroke="black" points="490.5,-99.5 379.5,-99.5 "/>
<path fill="none" stroke="black" d="M379.5,-99.5C373.5,-99.5 367.5,-93.5 367.5,-87.5"/>
<polyline fill="none" stroke="black" points="367.5,-87.5 367.5,-50.5 "/>
<path fill="none" stroke="black" d="M367.5,-50.5C367.5,-44.5 373.5,-38.5 379.5,-38.5"/>
<text text-anchor="middle" x="435" y="-84.3" font-family="Times,serif" font-size="14.00">Following</text>
<polyline fill="none" stroke="black" points="367.5,-76.5 502.5,-76.5 "/>
<text text-anchor="start" x="375.5" y="-61.3" font-family="Times,serif" font-size="14.00">created_at :datetime</text>
<text text-anchor="start" x="375.5" y="-46.3" font-family="Times,serif" font-size="14.00">updated_at :datetime</text>
</g>
<!-- User&#45;&gt;Comment -->
<g id="edge12" class="edge"><title>User&#45;&gt;Comment</title>
<path fill="none" stroke="#3d4239" d="M208.29,-185.113C193.152,-163.136 178.179,-141.398 165.39,-122.831"/>
<ellipse fill="none" stroke="#3d4239" cx="210.704" cy="-188.618" rx="4.00002" ry="4.00002"/>
<polygon fill="#3d4239" stroke="#3d4239" points="165.348,-122.77 163.381,-111.982 162.512,-118.652 159.675,-114.535 159.675,-114.535 159.675,-114.535 162.512,-118.652 155.969,-117.087 165.348,-122.77 165.348,-122.77"/>
</g>
<!-- User&#45;&gt;Communication -->
<g id="edge18" class="edge"><title>User&#45;&gt;Communication</title>
<path fill="none" stroke="#ca9198" d="M287.307,-168.39C286.319,-150.064 285.368,-132.444 284.552,-117.306"/>
<ellipse fill="none" stroke="#ca9198" cx="287.524" cy="-172.413" rx="4" ry="4"/>
<polygon fill="#ca9198" stroke="#ca9198" points="284.548,-117.229 288.502,-107.001 284.278,-112.236 284.009,-107.243 284.009,-107.243 284.009,-107.243 284.278,-112.236 279.516,-107.486 284.548,-117.229 284.548,-117.229"/>
</g>
<!-- User&#45;&gt;Event -->
<g id="edge10" class="edge"><title>User&#45;&gt;Event</title>
<path fill="none" stroke="#0b5dae" d="M294.633,-455.944C294.604,-467.344 294.574,-479.001 294.544,-490.742"/>
<ellipse fill="none" stroke="#0b5dae" cx="294.644" cy="-451.69" rx="4" ry="4"/>
<polygon fill="#0b5dae" stroke="#0b5dae" points="294.544,-490.86 290.018,-500.849 294.531,-495.86 294.518,-500.86 294.518,-500.86 294.518,-500.86 294.531,-495.86 299.018,-500.872 294.544,-490.86 294.544,-490.86"/>
<text text-anchor="middle" x="336" y="-470.3" font-family="Times,serif" font-size="14.00">created_events</text>
</g>
<!-- User&#45;&gt;Following -->
<g id="edge14" class="edge"><title>User&#45;&gt;Following</title>
<path fill="none" stroke="#1cfe22" d="M377.302,-169.322C390.202,-147.116 402.527,-125.9 412.448,-108.821"/>
<ellipse fill="none" stroke="#1cfe22" cx="375.196" cy="-172.949" rx="4.00002" ry="4.00002"/>
<polygon fill="#1cfe22" stroke="#1cfe22" points="412.678,-108.425 421.593,-102.038 415.19,-104.101 417.702,-99.7779 417.702,-99.7779 417.702,-99.7779 415.19,-104.101 413.811,-97.5175 412.678,-108.425 412.678,-108.425"/>
</g>
<!-- User&#45;&gt;Translation -->
<g id="edge22" class="edge"><title>User&#45;&gt;Translation</title>
<path fill="none" stroke="#f12ed4" d="M383.788,-241.459C423.118,-210.254 469.727,-172.718 511,-138 511.469,-137.605 511.94,-137.209 512.411,-136.811"/>
<ellipse fill="none" stroke="#f12ed4" cx="380.172" cy="-244.325" rx="4.00002" ry="4.00002"/>
<polygon fill="#f12ed4" stroke="#f12ed4" points="512.514,-136.724 523.048,-133.678 516.324,-133.486 520.134,-130.249 520.134,-130.249 520.134,-130.249 516.324,-133.486 517.22,-126.82 512.514,-136.724 512.514,-136.724"/>
</g>
<!-- User&#45;&gt;User -->
<g id="edge16" class="edge"><title>User&#45;&gt;User</title>
<path fill="none" stroke="#cc4d9f" d="M387.268,-321.503C392.124,-319.166 395,-315.998 395,-312 395,-308.002 392.124,-304.834 387.268,-302.497"/>
<polygon fill="#cc4d9f" stroke="#cc4d9f" points="386.912,-321.617 376.018,-320.366 382.149,-323.135 377.385,-324.653 377.385,-324.653 377.385,-324.653 382.149,-323.135 378.751,-328.941 386.912,-321.617 386.912,-321.617"/>
<polygon fill="#cc4d9f" stroke="#cc4d9f" points="386.912,-302.383 378.751,-295.059 382.149,-300.865 377.385,-299.347 377.385,-299.347 377.385,-299.347 382.149,-300.865 376.018,-303.634 386.912,-302.383 386.912,-302.383"/>
<text text-anchor="middle" x="424" y="-308.3" font-family="Times,serif" font-size="14.00">followeds</text>
</g>
<!-- User&#45;&gt;User -->
<g id="edge20" class="edge"><title>User&#45;&gt;User</title>
<path fill="none" stroke="#316e05" d="M387.291,-340.869C422.495,-341.143 453,-331.52 453,-312 453,-292.48 422.495,-282.857 387.291,-283.131"/>
<polygon fill="#316e05" stroke="#316e05" points="387.253,-340.868 377.411,-336.032 382.255,-340.699 377.258,-340.53 377.258,-340.53 377.258,-340.53 382.255,-340.699 377.106,-345.027 387.253,-340.868 387.253,-340.868"/>
<polygon fill="#316e05" stroke="#316e05" points="387.253,-283.132 377.106,-278.973 382.255,-283.301 377.258,-283.47 377.258,-283.47 377.258,-283.47 382.255,-283.301 377.411,-287.968 387.253,-283.132 387.253,-283.132"/>
<text text-anchor="middle" x="478.5" y="-308.3" font-family="Times,serif" font-size="14.00">receivers</text>
</g>
<!-- UserSession -->
<g id="node9" class="node"><title>UserSession</title>
<polygon fill="none" stroke="black" points="439.5,-681 439.5,-727 526.5,-727 526.5,-681 439.5,-681"/>
<text text-anchor="middle" x="483" y="-711.8" font-family="Times,serif" font-size="14.00">UserSession</text>
<polyline fill="none" stroke="black" points="439.5,-704 526.5,-704 "/>
<text text-anchor="middle" x="483" y="-688.8" font-family="Times,serif" font-size="14.00"> </text>
</g>
<!-- Authlogic::Session::Base -->
<g id="node21" class="node"><title>Authlogic::Session::Base</title>
<ellipse fill="none" stroke="black" cx="483" cy="-985" rx="103.486" ry="18"/>
<text text-anchor="middle" x="483" y="-981.3" font-family="Times,serif" font-size="14.00">Authlogic::Session::Base</text>
</g>
<!-- Authlogic::Session::Base&#45;&gt;UserSession -->
<g id="edge24" class="edge"><title>Authlogic::Session::Base&#45;&gt;UserSession</title>
<path fill="none" stroke="black" d="M483,-966.967C483,-918.697 483,-781.006 483,-727.06"/>
</g>
</g>
</svg>
