<?xml version="1.0" encoding="UTF-8" standalone="no"?>
<!DOCTYPE svg PUBLIC "-//W3C//DTD SVG 1.1//EN"
 "http://www.w3.org/Graphics/SVG/1.1/DTD/svg11.dtd">
<!-- Generated by graphviz version 2.28.0 (20120402.2051)
 -->
<!-- Title: models_diagram Pages: 1 -->
<svg width="927pt" height="1372pt"
 viewBox="0.00 0.00 927.00 1372.00" xmlns="http://www.w3.org/2000/svg" xmlns:xlink="http://www.w3.org/1999/xlink">
<g id="graph1" class="graph" transform="scale(1 1) rotate(0) translate(4 1368)">
<title>models_diagram</title>
<polygon fill="white" stroke="white" points="-4,5 -4,-1368 924,-1368 924,5 -4,5"/>
<!-- _diagram_info -->
<g id="node1" class="node"><title>_diagram_info</title>
<text text-anchor="start" x="343" y="-1327.6" font-family="Times,serif" font-size="13.00">Models diagram</text>
<text text-anchor="start" x="343" y="-1313.6" font-family="Times,serif" font-size="13.00">Date: Apr 08 2012 &#45; 14:36</text>
<text text-anchor="start" x="343" y="-1299.6" font-family="Times,serif" font-size="13.00">Migration version: 20120406114158</text>
<text text-anchor="start" x="343" y="-1285.6" font-family="Times,serif" font-size="13.00">Generated by RailRoady 1.0.7</text>
<text text-anchor="start" x="343" y="-1271.6" font-family="Times,serif" font-size="13.00">http://railroady.prestonlee.com</text>
</g>
<!-- Alarm -->
<g id="node2" class="node"><title>Alarm</title>
<polyline fill="none" stroke="black" points="571.5,-1242.5 682.5,-1242.5 "/>
<path fill="none" stroke="black" d="M682.5,-1242.5C688.5,-1242.5 694.5,-1248.5 694.5,-1254.5"/>
<polyline fill="none" stroke="black" points="694.5,-1254.5 694.5,-1351.5 "/>
<path fill="none" stroke="black" d="M694.5,-1351.5C694.5,-1357.5 688.5,-1363.5 682.5,-1363.5"/>
<polyline fill="none" stroke="black" points="682.5,-1363.5 571.5,-1363.5 "/>
<path fill="none" stroke="black" d="M571.5,-1363.5C565.5,-1363.5 559.5,-1357.5 559.5,-1351.5"/>
<polyline fill="none" stroke="black" points="559.5,-1351.5 559.5,-1254.5 "/>
<path fill="none" stroke="black" d="M559.5,-1254.5C559.5,-1248.5 565.5,-1242.5 571.5,-1242.5"/>
<text text-anchor="middle" x="627" y="-1348.3" font-family="Times,serif" font-size="14.00">Alarm</text>
<polyline fill="none" stroke="black" points="559.5,-1340.5 694.5,-1340.5 "/>
<text text-anchor="start" x="567.5" y="-1325.3" font-family="Times,serif" font-size="14.00">active :boolean</text>
<text text-anchor="start" x="567.5" y="-1310.3" font-family="Times,serif" font-size="14.00">title :string</text>
<text text-anchor="start" x="567.5" y="-1295.3" font-family="Times,serif" font-size="14.00">keyword :string</text>
<text text-anchor="start" x="567.5" y="-1280.3" font-family="Times,serif" font-size="14.00">where :string</text>
<text text-anchor="start" x="567.5" y="-1265.3" font-family="Times,serif" font-size="14.00">created_at :datetime</text>
<text text-anchor="start" x="567.5" y="-1250.3" font-family="Times,serif" font-size="14.00">updated_at :datetime</text>
</g>
<!-- Category -->
<g id="node3" class="node"><title>Category</title>
<polyline fill="none" stroke="black" points="433.5,-1127 544.5,-1127 "/>
<path fill="none" stroke="black" d="M544.5,-1127C550.5,-1127 556.5,-1133 556.5,-1139"/>
<polyline fill="none" stroke="black" points="556.5,-1139 556.5,-1191 "/>
<path fill="none" stroke="black" d="M556.5,-1191C556.5,-1197 550.5,-1203 544.5,-1203"/>
<polyline fill="none" stroke="black" points="544.5,-1203 433.5,-1203 "/>
<path fill="none" stroke="black" d="M433.5,-1203C427.5,-1203 421.5,-1197 421.5,-1191"/>
<polyline fill="none" stroke="black" points="421.5,-1191 421.5,-1139 "/>
<path fill="none" stroke="black" d="M421.5,-1139C421.5,-1133 427.5,-1127 433.5,-1127"/>
<text text-anchor="middle" x="489" y="-1187.8" font-family="Times,serif" font-size="14.00">Category</text>
<polyline fill="none" stroke="black" points="421.5,-1180 556.5,-1180 "/>
<text text-anchor="start" x="429.5" y="-1164.8" font-family="Times,serif" font-size="14.00">name :string</text>
<text text-anchor="start" x="429.5" y="-1149.8" font-family="Times,serif" font-size="14.00">created_at :datetime</text>
<text text-anchor="start" x="429.5" y="-1134.8" font-family="Times,serif" font-size="14.00">updated_at :datetime</text>
</g>
<!-- Alarm&#45;&gt;Category -->
<g id="edge2" class="edge"><title>Alarm&#45;&gt;Category</title>
<path fill="none" stroke="#1aebcb" d="M559.18,-1235.16C550.664,-1226.77 542.124,-1218.35 534.079,-1210.43"/>
<polygon fill="#1aebcb" stroke="#1aebcb" points="559.349,-1235.33 563.313,-1245.55 562.91,-1238.84 566.471,-1242.35 566.471,-1242.35 566.471,-1242.35 562.91,-1238.84 569.63,-1239.14 559.349,-1235.33 559.349,-1235.33"/>
<polygon fill="#1aebcb" stroke="#1aebcb" points="533.967,-1210.32 530.003,-1200.09 530.406,-1206.81 526.845,-1203.3 526.845,-1203.3 526.845,-1203.3 530.406,-1206.81 523.686,-1206.5 533.967,-1210.32 533.967,-1210.32"/>
</g>
<!-- Event -->
<g id="node6" class="node"><title>Event</title>
<polyline fill="none" stroke="black" points="338,-576.5 474,-576.5 "/>
<path fill="none" stroke="black" d="M474,-576.5C480,-576.5 486,-582.5 486,-588.5"/>
<polyline fill="none" stroke="black" points="486,-588.5 486,-1075.5 "/>
<path fill="none" stroke="black" d="M486,-1075.5C486,-1081.5 480,-1087.5 474,-1087.5"/>
<polyline fill="none" stroke="black" points="474,-1087.5 338,-1087.5 "/>
<path fill="none" stroke="black" d="M338,-1087.5C332,-1087.5 326,-1081.5 326,-1075.5"/>
<polyline fill="none" stroke="black" points="326,-1075.5 326,-588.5 "/>
<path fill="none" stroke="black" d="M326,-588.5C326,-582.5 332,-576.5 338,-576.5"/>
<text text-anchor="middle" x="406" y="-1072.3" font-family="Times,serif" font-size="14.00">Event</text>
<polyline fill="none" stroke="black" points="326,-1064.5 486,-1064.5 "/>
<text text-anchor="start" x="334" y="-1049.3" font-family="Times,serif" font-size="14.00">title :string</text>
<text text-anchor="start" x="334" y="-1034.3" font-family="Times,serif" font-size="14.00">startDate :datetime</text>
<text text-anchor="start" x="334" y="-1019.3" font-family="Times,serif" font-size="14.00">finishDate :datetime</text>
<text text-anchor="start" x="334" y="-1004.3" font-family="Times,serif" font-size="14.00">place :string</text>
<text text-anchor="start" x="334" y="-989.3" font-family="Times,serif" font-size="14.00">town :string</text>
<text text-anchor="start" x="334" y="-974.3" font-family="Times,serif" font-size="14.00">province :string</text>
<text text-anchor="start" x="334" y="-959.3" font-family="Times,serif" font-size="14.00">price :decimal</text>
<text text-anchor="start" x="334" y="-944.3" font-family="Times,serif" font-size="14.00">description :text</text>
<text text-anchor="start" x="334" y="-929.3" font-family="Times,serif" font-size="14.00">email :string</text>
<text text-anchor="start" x="334" y="-914.3" font-family="Times,serif" font-size="14.00">website :string</text>
<text text-anchor="start" x="334" y="-899.3" font-family="Times,serif" font-size="14.00">phone :string</text>
<text text-anchor="start" x="334" y="-884.3" font-family="Times,serif" font-size="14.00">created_at :datetime</text>
<text text-anchor="start" x="334" y="-869.3" font-family="Times,serif" font-size="14.00">updated_at :datetime</text>
<text text-anchor="start" x="334" y="-854.3" font-family="Times,serif" font-size="14.00">pic_file_name :string</text>
<text text-anchor="start" x="334" y="-839.3" font-family="Times,serif" font-size="14.00">pic_content_type :string</text>
<text text-anchor="start" x="334" y="-824.3" font-family="Times,serif" font-size="14.00">pic_file_size :integer</text>
<text text-anchor="start" x="334" y="-809.3" font-family="Times,serif" font-size="14.00">pic_updated_at :datetime</text>
<text text-anchor="start" x="334" y="-794.3" font-family="Times,serif" font-size="14.00">latitude :float</text>
<text text-anchor="start" x="334" y="-779.3" font-family="Times,serif" font-size="14.00">longitude :float</text>
<text text-anchor="start" x="334" y="-764.3" font-family="Times,serif" font-size="14.00">gmaps :boolean</text>
<text text-anchor="start" x="334" y="-749.3" font-family="Times,serif" font-size="14.00">address :string</text>
<text text-anchor="start" x="334" y="-734.3" font-family="Times,serif" font-size="14.00">des_es :text</text>
<text text-anchor="start" x="334" y="-719.3" font-family="Times,serif" font-size="14.00">des_eu :text</text>
<text text-anchor="start" x="334" y="-704.3" font-family="Times,serif" font-size="14.00">des_en :text</text>
<text text-anchor="start" x="334" y="-689.3" font-family="Times,serif" font-size="14.00">des_fr :text</text>
<text text-anchor="start" x="334" y="-674.3" font-family="Times,serif" font-size="14.00">views :integer</text>
<text text-anchor="start" x="334" y="-659.3" font-family="Times,serif" font-size="14.00">title_es :string</text>
<text text-anchor="start" x="334" y="-644.3" font-family="Times,serif" font-size="14.00">title_eu :string</text>
<text text-anchor="start" x="334" y="-629.3" font-family="Times,serif" font-size="14.00">title_fr :string</text>
<text text-anchor="start" x="334" y="-614.3" font-family="Times,serif" font-size="14.00">title_en :string</text>
<text text-anchor="start" x="334" y="-599.3" font-family="Times,serif" font-size="14.00">approved :boolean</text>
<text text-anchor="start" x="334" y="-584.3" font-family="Times,serif" font-size="14.00">reminded :boolean</text>
</g>
<!-- Category&#45;&gt;Event -->
<g id="edge4" class="edge"><title>Category&#45;&gt;Event</title>
<path fill="none" stroke="#595eda" d="M477.282,-1117.27C475.731,-1111.09 474.063,-1104.43 472.3,-1097.4"/>
<polygon fill="#595eda" stroke="#595eda" points="477.288,-1117.29 475.356,-1128.09 478.504,-1122.14 479.72,-1126.99 479.72,-1126.99 479.72,-1126.99 478.504,-1122.14 484.085,-1125.9 477.288,-1117.29 477.288,-1117.29"/>
<polygon fill="#595eda" stroke="#595eda" points="472.273,-1097.29 474.206,-1086.5 471.057,-1092.44 469.841,-1087.59 469.841,-1087.59 469.841,-1087.59 471.057,-1092.44 465.476,-1088.69 472.273,-1097.29 472.273,-1097.29"/>
</g>
<!-- Comment -->
<g id="node4" class="node"><title>Comment</title>
<polyline fill="none" stroke="black" points="623.5,-53.5 734.5,-53.5 "/>
<path fill="none" stroke="black" d="M734.5,-53.5C740.5,-53.5 746.5,-59.5 746.5,-65.5"/>
<polyline fill="none" stroke="black" points="746.5,-65.5 746.5,-132.5 "/>
<path fill="none" stroke="black" d="M746.5,-132.5C746.5,-138.5 740.5,-144.5 734.5,-144.5"/>
<polyline fill="none" stroke="black" points="734.5,-144.5 623.5,-144.5 "/>
<path fill="none" stroke="black" d="M623.5,-144.5C617.5,-144.5 611.5,-138.5 611.5,-132.5"/>
<polyline fill="none" stroke="black" points="611.5,-132.5 611.5,-65.5 "/>
<path fill="none" stroke="black" d="M611.5,-65.5C611.5,-59.5 617.5,-53.5 623.5,-53.5"/>
<text text-anchor="middle" x="679" y="-129.3" font-family="Times,serif" font-size="14.00">Comment</text>
<polyline fill="none" stroke="black" points="611.5,-121.5 746.5,-121.5 "/>
<text text-anchor="start" x="619.5" y="-106.3" font-family="Times,serif" font-size="14.00">body :text</text>
<text text-anchor="start" x="619.5" y="-91.3" font-family="Times,serif" font-size="14.00">created_at :datetime</text>
<text text-anchor="start" x="619.5" y="-76.3" font-family="Times,serif" font-size="14.00">updated_at :datetime</text>
<text text-anchor="start" x="619.5" y="-61.3" font-family="Times,serif" font-size="14.00">banned :boolean</text>
</g>
<!-- Communication -->
<g id="node5" class="node"><title>Communication</title>
<polyline fill="none" stroke="black" points="317.5,-61 428.5,-61 "/>
<path fill="none" stroke="black" d="M428.5,-61C434.5,-61 440.5,-67 440.5,-73"/>
<polyline fill="none" stroke="black" points="440.5,-73 440.5,-125 "/>
<path fill="none" stroke="black" d="M440.5,-125C440.5,-131 434.5,-137 428.5,-137"/>
<polyline fill="none" stroke="black" points="428.5,-137 317.5,-137 "/>
<path fill="none" stroke="black" d="M317.5,-137C311.5,-137 305.5,-131 305.5,-125"/>
<polyline fill="none" stroke="black" points="305.5,-125 305.5,-73 "/>
<path fill="none" stroke="black" d="M305.5,-73C305.5,-67 311.5,-61 317.5,-61"/>
<text text-anchor="middle" x="373" y="-121.8" font-family="Times,serif" font-size="14.00">Communication</text>
<polyline fill="none" stroke="black" points="305.5,-114 440.5,-114 "/>
<text text-anchor="start" x="313.5" y="-98.8" font-family="Times,serif" font-size="14.00">body :text</text>
<text text-anchor="start" x="313.5" y="-83.8" font-family="Times,serif" font-size="14.00">created_at :datetime</text>
<text text-anchor="start" x="313.5" y="-68.8" font-family="Times,serif" font-size="14.00">updated_at :datetime</text>
</g>
<!-- Event&#45;&gt;Comment -->
<g id="edge8" class="edge"><title>Event&#45;&gt;Comment</title>
<path fill="none" stroke="#c5fa7d" d="M490.931,-726.762C532.864,-670.037 580.458,-596.738 609,-524 658.459,-397.953 672.973,-237.526 677.232,-154.816"/>
<ellipse fill="none" stroke="#c5fa7d" cx="488.496" cy="-730.036" rx="4.00002" ry="4.00002"/>
<polygon fill="#c5fa7d" stroke="#c5fa7d" points="677.241,-154.627 682.219,-144.856 677.482,-149.632 677.724,-144.638 677.724,-144.638 677.724,-144.638 677.482,-149.632 673.229,-144.421 677.241,-154.627 677.241,-154.627"/>
</g>
<!-- Translation -->
<g id="node9" class="node"><title>Translation</title>
<polyline fill="none" stroke="black" points="11.5,-1 122.5,-1 "/>
<path fill="none" stroke="black" d="M122.5,-1C128.5,-1 134.5,-7 134.5,-13"/>
<polyline fill="none" stroke="black" points="134.5,-13 134.5,-185 "/>
<path fill="none" stroke="black" d="M134.5,-185C134.5,-191 128.5,-197 122.5,-197"/>
<polyline fill="none" stroke="black" points="122.5,-197 11.5,-197 "/>
<path fill="none" stroke="black" d="M11.5,-197C5.5,-197 -0.5,-191 -0.5,-185"/>
<polyline fill="none" stroke="black" points="-0.5,-185 -0.5,-13 "/>
<path fill="none" stroke="black" d="M-0.5,-13C-0.5,-7 5.5,-1 11.5,-1"/>
<text text-anchor="middle" x="67" y="-181.8" font-family="Times,serif" font-size="14.00">Translation</text>
<polyline fill="none" stroke="black" points="-0.5,-174 134.5,-174 "/>
<text text-anchor="start" x="7.5" y="-158.8" font-family="Times,serif" font-size="14.00">des_es :text</text>
<text text-anchor="start" x="7.5" y="-143.8" font-family="Times,serif" font-size="14.00">des_eu :text</text>
<text text-anchor="start" x="7.5" y="-128.8" font-family="Times,serif" font-size="14.00">des_fr :text</text>
<text text-anchor="start" x="7.5" y="-113.8" font-family="Times,serif" font-size="14.00">des_en :text</text>
<text text-anchor="start" x="7.5" y="-98.8" font-family="Times,serif" font-size="14.00">comment :text</text>
<text text-anchor="start" x="7.5" y="-83.8" font-family="Times,serif" font-size="14.00">created_at :datetime</text>
<text text-anchor="start" x="7.5" y="-68.8" font-family="Times,serif" font-size="14.00">updated_at :datetime</text>
<text text-anchor="start" x="7.5" y="-53.8" font-family="Times,serif" font-size="14.00">title_es :string</text>
<text text-anchor="start" x="7.5" y="-38.8" font-family="Times,serif" font-size="14.00">title_eu :string</text>
<text text-anchor="start" x="7.5" y="-23.8" font-family="Times,serif" font-size="14.00">title_fr :string</text>
<text text-anchor="start" x="7.5" y="-8.8" font-family="Times,serif" font-size="14.00">title_en :string</text>
</g>
<!-- Event&#45;&gt;Translation -->
<g id="edge10" class="edge"><title>Event&#45;&gt;Translation</title>
<path fill="none" stroke="#b042e7" d="M322.332,-650.584C257.625,-511.052 170.245,-322.631 116.308,-206.326"/>
<ellipse fill="none" stroke="#b042e7" cx="324.194" cy="-654.597" rx="4.00002" ry="4.00002"/>
<polygon fill="#b042e7" stroke="#b042e7" points="116.208,-206.11 116.084,-195.145 114.105,-201.574 112.001,-197.038 112.001,-197.038 112.001,-197.038 114.105,-201.574 107.919,-198.931 116.208,-206.11 116.208,-206.11"/>
</g>
<!-- User -->
<g id="node10" class="node"><title>User</title>
<polyline fill="none" stroke="black" points="303,-237 443,-237 "/>
<path fill="none" stroke="black" d="M443,-237C449,-237 455,-243 455,-249"/>
<polyline fill="none" stroke="black" points="455,-249 455,-511 "/>
<path fill="none" stroke="black" d="M455,-511C455,-517 449,-523 443,-523"/>
<polyline fill="none" stroke="black" points="443,-523 303,-523 "/>
<path fill="none" stroke="black" d="M303,-523C297,-523 291,-517 291,-511"/>
<polyline fill="none" stroke="black" points="291,-511 291,-249 "/>
<path fill="none" stroke="black" d="M291,-249C291,-243 297,-237 303,-237"/>
<text text-anchor="middle" x="373" y="-507.8" font-family="Times,serif" font-size="14.00">User</text>
<polyline fill="none" stroke="black" points="291,-500 455,-500 "/>
<text text-anchor="start" x="299" y="-484.8" font-family="Times,serif" font-size="14.00">name :string</text>
<text text-anchor="start" x="299" y="-469.8" font-family="Times,serif" font-size="14.00">email :string</text>
<text text-anchor="start" x="299" y="-454.8" font-family="Times,serif" font-size="14.00">town :string</text>
<text text-anchor="start" x="299" y="-439.8" font-family="Times,serif" font-size="14.00">province :string</text>
<text text-anchor="start" x="299" y="-424.8" font-family="Times,serif" font-size="14.00">website :string</text>
<text text-anchor="start" x="299" y="-409.8" font-family="Times,serif" font-size="14.00">created_at :datetime</text>
<text text-anchor="start" x="299" y="-394.8" font-family="Times,serif" font-size="14.00">updated_at :datetime</text>
<text text-anchor="start" x="299" y="-379.8" font-family="Times,serif" font-size="14.00">pic_file_name :string</text>
<text text-anchor="start" x="299" y="-364.8" font-family="Times,serif" font-size="14.00">pic_content_type :string</text>
<text text-anchor="start" x="299" y="-349.8" font-family="Times,serif" font-size="14.00">pic_file_size :integer</text>
<text text-anchor="start" x="299" y="-334.8" font-family="Times,serif" font-size="14.00">pic_updated_at :datetime</text>
<text text-anchor="start" x="299" y="-319.8" font-family="Times,serif" font-size="14.00">crypted_password :string</text>
<text text-anchor="start" x="299" y="-304.8" font-family="Times,serif" font-size="14.00">persistence_token :string</text>
<text text-anchor="start" x="299" y="-289.8" font-family="Times,serif" font-size="14.00">admin :boolean</text>
<text text-anchor="start" x="299" y="-274.8" font-family="Times,serif" font-size="14.00">locale :string</text>
<text text-anchor="start" x="299" y="-259.8" font-family="Times,serif" font-size="14.00">perishable_token :string</text>
<text text-anchor="start" x="299" y="-244.8" font-family="Times,serif" font-size="14.00">attempts :integer</text>
</g>
<!-- Event&#45;&gt;User -->
<g id="edge6" class="edge"><title>Event&#45;&gt;User</title>
<path fill="none" stroke="#d73469" d="M386.582,-566.209C385.766,-555.076 384.959,-544.078 384.171,-533.327"/>
<polygon fill="#d73469" stroke="#d73469" points="386.599,-566.44 382.842,-576.742 386.965,-571.427 387.33,-576.413 387.33,-576.413 387.33,-576.413 386.965,-571.427 391.818,-576.084 386.599,-566.44 386.599,-566.44"/>
<polygon fill="#d73469" stroke="#d73469" points="384.152,-533.073 387.909,-522.771 383.786,-528.086 383.421,-523.1 383.421,-523.1 383.421,-523.1 383.786,-528.086 378.933,-523.429 384.152,-533.073 384.152,-533.073"/>
</g>
<!-- Following -->
<g id="node7" class="node"><title>Following</title>
<polyline fill="none" stroke="black" points="470.5,-68.5 581.5,-68.5 "/>
<path fill="none" stroke="black" d="M581.5,-68.5C587.5,-68.5 593.5,-74.5 593.5,-80.5"/>
<polyline fill="none" stroke="black" points="593.5,-80.5 593.5,-117.5 "/>
<path fill="none" stroke="black" d="M593.5,-117.5C593.5,-123.5 587.5,-129.5 581.5,-129.5"/>
<polyline fill="none" stroke="black" points="581.5,-129.5 470.5,-129.5 "/>
<path fill="none" stroke="black" d="M470.5,-129.5C464.5,-129.5 458.5,-123.5 458.5,-117.5"/>
<polyline fill="none" stroke="black" points="458.5,-117.5 458.5,-80.5 "/>
<path fill="none" stroke="black" d="M458.5,-80.5C458.5,-74.5 464.5,-68.5 470.5,-68.5"/>
<text text-anchor="middle" x="526" y="-114.3" font-family="Times,serif" font-size="14.00">Following</text>
<polyline fill="none" stroke="black" points="458.5,-106.5 593.5,-106.5 "/>
<text text-anchor="start" x="466.5" y="-91.3" font-family="Times,serif" font-size="14.00">created_at :datetime</text>
<text text-anchor="start" x="466.5" y="-76.3" font-family="Times,serif" font-size="14.00">updated_at :datetime</text>
</g>
<!-- Micropost -->
<g id="node8" class="node"><title>Micropost</title>
<polyline fill="none" stroke="black" points="164.5,-61 275.5,-61 "/>
<path fill="none" stroke="black" d="M275.5,-61C281.5,-61 287.5,-67 287.5,-73"/>
<polyline fill="none" stroke="black" points="287.5,-73 287.5,-125 "/>
<path fill="none" stroke="black" d="M287.5,-125C287.5,-131 281.5,-137 275.5,-137"/>
<polyline fill="none" stroke="black" points="275.5,-137 164.5,-137 "/>
<path fill="none" stroke="black" d="M164.5,-137C158.5,-137 152.5,-131 152.5,-125"/>
<polyline fill="none" stroke="black" points="152.5,-125 152.5,-73 "/>
<path fill="none" stroke="black" d="M152.5,-73C152.5,-67 158.5,-61 164.5,-61"/>
<text text-anchor="middle" x="220" y="-121.8" font-family="Times,serif" font-size="14.00">Micropost</text>
<polyline fill="none" stroke="black" points="152.5,-114 287.5,-114 "/>
<text text-anchor="start" x="160.5" y="-98.8" font-family="Times,serif" font-size="14.00">content :string</text>
<text text-anchor="start" x="160.5" y="-83.8" font-family="Times,serif" font-size="14.00">created_at :datetime</text>
<text text-anchor="start" x="160.5" y="-68.8" font-family="Times,serif" font-size="14.00">updated_at :datetime</text>
</g>
<!-- User&#45;&gt;Alarm -->
<g id="edge26" class="edge"><title>User&#45;&gt;Alarm</title>
<path fill="none" stroke="#4b7ea9" d="M459.111,-502.912C472.786,-526.354 485.523,-551.315 495,-576 583.27,-805.915 613.406,-1099.93 622.941,-1232.12"/>
<ellipse fill="none" stroke="#4b7ea9" cx="457.071" cy="-499.459" rx="4.00002" ry="4.00002"/>
<polygon fill="#4b7ea9" stroke="#4b7ea9" points="622.942,-1232.14 619.156,-1242.43 623.294,-1237.13 623.645,-1242.11 623.645,-1242.11 623.645,-1242.11 623.294,-1237.13 628.134,-1241.8 622.942,-1232.14 622.942,-1232.14"/>
</g>
<!-- User&#45;&gt;Comment -->
<g id="edge14" class="edge"><title>User&#45;&gt;Comment</title>
<path fill="none" stroke="#ddc648" d="M461.499,-316.76C505.768,-283.759 558.943,-241.181 602,-198 615.664,-184.296 629.179,-168.206 640.981,-153.07"/>
<ellipse fill="none" stroke="#ddc648" cx="458.246" cy="-319.174" rx="4.00002" ry="4.00002"/>
<polygon fill="#ddc648" stroke="#ddc648" points="641.258,-152.709 650.92,-147.522 644.305,-148.745 647.352,-144.78 647.352,-144.78 647.352,-144.78 644.305,-148.745 643.784,-142.038 641.258,-152.709 641.258,-152.709"/>
</g>
<!-- User&#45;&gt;Communication -->
<g id="edge20" class="edge"><title>User&#45;&gt;Communication</title>
<path fill="none" stroke="#5d39a7" d="M373,-228.452C373,-198.977 373,-170.164 373,-147.321"/>
<ellipse fill="none" stroke="#5d39a7" cx="373" cy="-232.639" rx="4" ry="4"/>
<polygon fill="#5d39a7" stroke="#5d39a7" points="373,-147.264 377.5,-137.264 373,-142.264 373,-137.264 373,-137.264 373,-137.264 373,-142.264 368.5,-137.264 373,-147.264 373,-147.264"/>
</g>
<!-- User&#45;&gt;Event -->
<g id="edge12" class="edge"><title>User&#45;&gt;Event</title>
<path fill="none" stroke="#db3e79" d="M384.025,-531.335C384.859,-542.718 385.715,-554.388 386.582,-566.209"/>
<ellipse fill="none" stroke="#db3e79" cx="383.713" cy="-527.089" rx="4" ry="4"/>
<polygon fill="#db3e79" stroke="#db3e79" points="386.599,-566.44 382.842,-576.742 386.965,-571.427 387.33,-576.413 387.33,-576.413 387.33,-576.413 386.965,-571.427 391.818,-576.084 386.599,-566.44 386.599,-566.44"/>
<text text-anchor="middle" x="428" y="-546.3" font-family="Times,serif" font-size="14.00">created_events</text>
</g>
<!-- User&#45;&gt;Following -->
<g id="edge16" class="edge"><title>User&#45;&gt;Following</title>
<path fill="none" stroke="#b51836" d="M454.976,-229.514C473.51,-195.717 491.613,-162.706 504.903,-138.47"/>
<ellipse fill="none" stroke="#b51836" cx="452.992" cy="-233.132" rx="4.00002" ry="4.00002"/>
<polygon fill="#b51836" stroke="#b51836" points="504.944,-138.396 513.698,-131.792 507.348,-134.012 509.753,-129.628 509.753,-129.628 509.753,-129.628 507.348,-134.012 505.807,-127.464 504.944,-138.396 504.944,-138.396"/>
</g>
<!-- User&#45;&gt;Micropost -->
<g id="edge28" class="edge"><title>User&#45;&gt;Micropost</title>
<path fill="none" stroke="#d32226" d="M290.913,-229.313C274.313,-199.041 258.065,-169.412 245.319,-146.169"/>
<ellipse fill="none" stroke="#d32226" cx="293.008" cy="-233.132" rx="4.00002" ry="4.00002"/>
<polygon fill="#d32226" stroke="#d32226" points="245.244,-146.032 244.381,-135.101 242.839,-141.648 240.435,-137.264 240.435,-137.264 240.435,-137.264 242.839,-141.648 236.49,-139.428 245.244,-146.032 245.244,-146.032"/>
</g>
<!-- User&#45;&gt;Translation -->
<g id="edge24" class="edge"><title>User&#45;&gt;Translation</title>
<path fill="none" stroke="#4234ec" d="M284.241,-317.13C239.691,-284.147 186.166,-241.474 143,-198 142.659,-197.656 142.317,-197.311 141.976,-196.964"/>
<ellipse fill="none" stroke="#4234ec" cx="287.526" cy="-319.552" rx="4.00002" ry="4.00002"/>
<polygon fill="#4234ec" stroke="#4234ec" points="141.745,-196.722 138.102,-186.379 138.295,-193.103 134.845,-189.484 134.845,-189.484 134.845,-189.484 138.295,-193.103 131.588,-192.589 141.745,-196.722 141.745,-196.722"/>
</g>
<!-- User&#45;&gt;User -->
<g id="edge22" class="edge"><title>User&#45;&gt;User</title>
<path fill="none" stroke="#e47aa2" d="M465.291,-410.369C500.495,-410.657 531,-400.534 531,-380 531,-359.466 500.495,-349.343 465.291,-349.631"/>
<polygon fill="#e47aa2" stroke="#e47aa2" points="465.252,-410.368 455.419,-405.514 460.255,-410.19 455.258,-410.012 455.258,-410.012 455.258,-410.012 460.255,-410.19 455.098,-414.509 465.252,-410.368 465.252,-410.368"/>
<polygon fill="#e47aa2" stroke="#e47aa2" points="465.252,-349.632 455.098,-345.491 460.255,-349.81 455.258,-349.988 455.258,-349.988 455.258,-349.988 460.255,-349.81 455.419,-354.486 465.252,-349.632 465.252,-349.632"/>
<text text-anchor="middle" x="556.5" y="-376.3" font-family="Times,serif" font-size="14.00">receivers</text>
</g>
<!-- User&#45;&gt;User -->
<g id="edge18" class="edge"><title>User&#45;&gt;User</title>
<path fill="none" stroke="#9ad30a" d="M464.909,-390.176C469.982,-387.7 473,-384.309 473,-380 473,-375.691 469.982,-372.3 464.909,-369.824"/>
<polygon fill="#9ad30a" stroke="#9ad30a" points="464.883,-390.184 453.978,-389.036 460.134,-391.747 455.385,-393.31 455.385,-393.31 455.385,-393.31 460.134,-391.747 456.791,-397.585 464.883,-390.184 464.883,-390.184"/>
<polygon fill="#9ad30a" stroke="#9ad30a" points="464.883,-369.816 456.791,-362.415 460.134,-368.253 455.385,-366.69 455.385,-366.69 455.385,-366.69 460.134,-368.253 453.978,-370.964 464.883,-369.816 464.883,-369.816"/>
<text text-anchor="middle" x="502" y="-376.3" font-family="Times,serif" font-size="14.00">followeds</text>
</g>
<!-- UserSession -->
<g id="node11" class="node"><title>UserSession</title>
<polygon fill="none" stroke="black" points="772.5,-1142 772.5,-1188 859.5,-1188 859.5,-1142 772.5,-1142"/>
<text text-anchor="middle" x="816" y="-1172.8" font-family="Times,serif" font-size="14.00">UserSession</text>
<polyline fill="none" stroke="black" points="772.5,-1165 859.5,-1165 "/>
<text text-anchor="middle" x="816" y="-1149.8" font-family="Times,serif" font-size="14.00"> </text>
</g>
<!-- Authlogic::Session::Base -->
<g id="node26" class="node"><title>Authlogic::Session::Base</title>
<ellipse fill="none" stroke="black" cx="816" cy="-1303" rx="103.486" ry="18"/>
<text text-anchor="middle" x="816" y="-1299.3" font-family="Times,serif" font-size="14.00">Authlogic::Session::Base</text>
</g>
<!-- Authlogic::Session::Base&#45;&gt;UserSession -->
<g id="edge30" class="edge"><title>Authlogic::Session::Base&#45;&gt;UserSession</title>
<path fill="none" stroke="black" d="M816,-1284.78C816,-1260.19 816,-1215.02 816,-1188.03"/>
</g>
</g>
</svg>
