<?xml version="1.0" encoding="UTF-8" standalone="no"?>
<!DOCTYPE svg PUBLIC "-//W3C//DTD SVG 1.1//EN"
 "http://www.w3.org/Graphics/SVG/1.1/DTD/svg11.dtd">
<!-- Generated by graphviz version 2.28.0 (20120402.2051)
 -->
<!-- Title: models_diagram Pages: 1 -->
<svg width="782pt" height="396pt"
 viewBox="0.00 0.00 782.00 396.00" xmlns="http://www.w3.org/2000/svg" xmlns:xlink="http://www.w3.org/1999/xlink">
<g id="graph1" class="graph" transform="scale(1 1) rotate(0) translate(4 392)">
<title>models_diagram</title>
<polygon fill="white" stroke="white" points="-4,5 -4,-392 779,-392 779,5 -4,5"/>
<!-- _diagram_info -->
<g id="node1" class="node"><title>_diagram_info</title>
<text text-anchor="start" x="265" y="-373.6" font-family="Times,serif" font-size="13.00">Models diagram</text>
<text text-anchor="start" x="265" y="-359.6" font-family="Times,serif" font-size="13.00">Date: Apr 08 2012 &#45; 14:36</text>
<text text-anchor="start" x="265" y="-345.6" font-family="Times,serif" font-size="13.00">Migration version: 20120406114158</text>
<text text-anchor="start" x="265" y="-331.6" font-family="Times,serif" font-size="13.00">Generated by RailRoady 1.0.7</text>
<text text-anchor="start" x="265" y="-317.6" font-family="Times,serif" font-size="13.00">http://railroady.prestonlee.com</text>
</g>
<!-- Alarm -->
<g id="node2" class="node"><title>Alarm</title>
<ellipse fill="none" stroke="black" cx="515" cy="-349" rx="34.1708" ry="18"/>
<text text-anchor="middle" x="515" y="-345.3" font-family="Times,serif" font-size="14.00">Alarm</text>
</g>
<!-- Category -->
<g id="node3" class="node"><title>Category</title>
<ellipse fill="none" stroke="black" cx="407" cy="-254" rx="45.244" ry="18"/>
<text text-anchor="middle" x="407" y="-250.3" font-family="Times,serif" font-size="14.00">Category</text>
</g>
<!-- Alarm&#45;&gt;Category -->
<g id="edge2" class="edge"><title>Alarm&#45;&gt;Category</title>
<path fill="none" stroke="#5494cb" d="M490.465,-326.156C484.448,-320.844 478.01,-315.197 472,-310 459.372,-299.08 445.235,-287.09 433.379,-277.101"/>
<polygon fill="#5494cb" stroke="#5494cb" points="490.841,-326.489 495.345,-336.487 494.585,-329.804 498.328,-333.118 498.328,-333.118 498.328,-333.118 494.585,-329.804 501.312,-329.749 490.841,-326.489 490.841,-326.489"/>
<polygon fill="#5494cb" stroke="#5494cb" points="433.234,-276.979 428.478,-267.098 429.408,-273.76 425.582,-270.542 425.582,-270.542 425.582,-270.542 429.408,-273.76 422.685,-273.985 433.234,-276.979 433.234,-276.979"/>
</g>
<!-- Event -->
<g id="node6" class="node"><title>Event</title>
<ellipse fill="none" stroke="black" cx="344" cy="-180" rx="32.2457" ry="18"/>
<text text-anchor="middle" x="344" y="-176.3" font-family="Times,serif" font-size="14.00">Event</text>
</g>
<!-- Category&#45;&gt;Event -->
<g id="edge4" class="edge"><title>Category&#45;&gt;Event</title>
<path fill="none" stroke="#9b96a7" d="M385.944,-228.936C379.137,-221.156 371.596,-212.538 364.807,-204.78"/>
<polygon fill="#9b96a7" stroke="#9b96a7" points="386.119,-229.136 389.318,-239.625 389.412,-232.899 392.704,-236.662 392.704,-236.662 392.704,-236.662 389.412,-232.899 396.091,-233.699 386.119,-229.136 386.119,-229.136"/>
<polygon fill="#9b96a7" stroke="#9b96a7" points="364.391,-204.304 361.193,-193.815 361.099,-200.541 357.806,-196.778 357.806,-196.778 357.806,-196.778 361.099,-200.541 354.42,-199.742 364.391,-204.304 364.391,-204.304"/>
</g>
<!-- Comment -->
<g id="node4" class="node"><title>Comment</title>
<ellipse fill="none" stroke="black" cx="567" cy="-18" rx="48.1437" ry="18"/>
<text text-anchor="middle" x="567" y="-14.3" font-family="Times,serif" font-size="14.00">Comment</text>
</g>
<!-- Communication -->
<g id="node5" class="node"><title>Communication</title>
<ellipse fill="none" stroke="black" cx="311" cy="-18" rx="71.2405" ry="18"/>
<text text-anchor="middle" x="311" y="-14.3" font-family="Times,serif" font-size="14.00">Communication</text>
</g>
<!-- Event&#45;&gt;Comment -->
<g id="edge8" class="edge"><title>Event&#45;&gt;Comment</title>
<path fill="none" stroke="#2b67d8" d="M379.35,-167.791C411.21,-156.548 458.249,-137.019 493,-110 516.699,-91.5739 537.643,-64.1921 551.146,-44.2797"/>
<ellipse fill="none" stroke="#2b67d8" cx="375.375" cy="-169.165" rx="4.00001" ry="4.00001"/>
<polygon fill="#2b67d8" stroke="#2b67d8" points="551.294,-44.0565 560.563,-38.1976 554.052,-39.8859 556.81,-35.7154 556.81,-35.7154 556.81,-35.7154 554.052,-39.8859 553.056,-33.2331 551.294,-44.0565 551.294,-44.0565"/>
</g>
<!-- Translation -->
<g id="node9" class="node"><title>Translation</title>
<ellipse fill="none" stroke="black" cx="52" cy="-18" rx="52.4675" ry="18"/>
<text text-anchor="middle" x="52" y="-14.3" font-family="Times,serif" font-size="14.00">Translation</text>
</g>
<!-- Event&#45;&gt;Translation -->
<g id="edge10" class="edge"><title>Event&#45;&gt;Translation</title>
<path fill="none" stroke="#961cd5" d="M314.308,-162.73C260.172,-133.067 145.656,-70.3185 87.4981,-38.451"/>
<ellipse fill="none" stroke="#961cd5" cx="318.064" cy="-164.789" rx="4.00002" ry="4.00002"/>
<polygon fill="#961cd5" stroke="#961cd5" points="87.4356,-38.4168 80.8283,-29.665 83.0507,-36.0141 78.6658,-33.6114 78.6658,-33.6114 78.6658,-33.6114 83.0507,-36.0141 76.5034,-37.5578 87.4356,-38.4168 87.4356,-38.4168"/>
</g>
<!-- User -->
<g id="node10" class="node"><title>User</title>
<ellipse fill="none" stroke="black" cx="311" cy="-92" rx="28.3955" ry="18"/>
<text text-anchor="middle" x="311" y="-88.3" font-family="Times,serif" font-size="14.00">User</text>
</g>
<!-- Event&#45;&gt;User -->
<g id="edge6" class="edge"><title>Event&#45;&gt;User</title>
<path fill="none" stroke="#a1d8a8" d="M329.303,-153.521C327.742,-150.365 326.265,-147.143 325,-144 321.901,-136.301 319.245,-127.68 317.106,-119.749"/>
<polygon fill="#a1d8a8" stroke="#a1d8a8" points="329.449,-153.797 330.132,-164.742 331.78,-158.22 334.112,-162.643 334.112,-162.643 334.112,-162.643 331.78,-158.22 338.093,-160.545 329.449,-153.797 329.449,-153.797"/>
<polygon fill="#a1d8a8" stroke="#a1d8a8" points="317.055,-119.548 318.959,-108.749 315.826,-114.702 314.597,-109.855 314.597,-109.855 314.597,-109.855 315.826,-114.702 310.235,-110.961 317.055,-119.548 317.055,-119.548"/>
</g>
<!-- Following -->
<g id="node7" class="node"><title>Following</title>
<ellipse fill="none" stroke="black" cx="451" cy="-18" rx="50.0684" ry="18"/>
<text text-anchor="middle" x="451" y="-14.3" font-family="Times,serif" font-size="14.00">Following</text>
</g>
<!-- Micropost -->
<g id="node8" class="node"><title>Micropost</title>
<ellipse fill="none" stroke="black" cx="172" cy="-18" rx="49.0941" ry="18"/>
<text text-anchor="middle" x="172" y="-14.3" font-family="Times,serif" font-size="14.00">Micropost</text>
</g>
<!-- User&#45;&gt;Alarm -->
<g id="edge26" class="edge"><title>User&#45;&gt;Alarm</title>
<path fill="none" stroke="#332da4" d="M347.171,-97.0534C370.169,-101.325 399.231,-110.08 419,-128 477.148,-180.708 501.697,-274.93 510.612,-321.059"/>
<ellipse fill="none" stroke="#332da4" cx="342.944" cy="-96.3398" rx="4.00001" ry="4.00001"/>
<polygon fill="#332da4" stroke="#332da4" points="510.616,-321.085 507.993,-331.732 511.518,-326.003 512.419,-330.921 512.419,-330.921 512.419,-330.921 511.518,-326.003 516.845,-330.11 510.616,-321.085 510.616,-321.085"/>
</g>
<!-- User&#45;&gt;Comment -->
<g id="edge14" class="edge"><title>User&#45;&gt;Comment</title>
<path fill="none" stroke="#cf3ade" d="M344.498,-81.9635C384.094,-71.2306 451.946,-52.6778 510,-36 513.585,-34.97 517.294,-33.8921 521.02,-32.8004"/>
<ellipse fill="none" stroke="#cf3ade" cx="340.352" cy="-83.0861" rx="4.00001" ry="4.00001"/>
<polygon fill="#cf3ade" stroke="#cf3ade" points="521.257,-32.7306 532.121,-34.2181 526.052,-31.3162 530.848,-29.9019 530.848,-29.9019 530.848,-29.9019 526.052,-31.3162 529.575,-25.5856 521.257,-32.7306 521.257,-32.7306"/>
</g>
<!-- User&#45;&gt;Communication -->
<g id="edge20" class="edge"><title>User&#45;&gt;Communication</title>
<path fill="none" stroke="#55f714" d="M311,-65.7923C311,-59.5805 311,-52.8963 311,-46.5786"/>
<ellipse fill="none" stroke="#55f714" cx="311" cy="-69.937" rx="4" ry="4"/>
<polygon fill="#55f714" stroke="#55f714" points="311,-46.4407 315.5,-36.4406 311,-41.4407 311,-36.4407 311,-36.4407 311,-36.4407 311,-41.4407 306.5,-36.4407 311,-46.4407 311,-46.4407"/>
</g>
<!-- User&#45;&gt;Event -->
<g id="edge12" class="edge"><title>User&#45;&gt;Event</title>
<path fill="none" stroke="#28d7df" d="M320.3,-117.237C324.508,-128.204 329.494,-141.197 333.804,-152.429"/>
<ellipse fill="none" stroke="#28d7df" cx="318.827" cy="-113.397" rx="4.00001" ry="4.00001"/>
<polygon fill="#28d7df" stroke="#28d7df" points="333.898,-152.673 333.279,-163.621 335.689,-157.341 337.48,-162.009 337.48,-162.009 337.48,-162.009 335.689,-157.341 341.682,-160.397 333.898,-152.673 333.898,-152.673"/>
<text text-anchor="middle" x="373" y="-132.3" font-family="Times,serif" font-size="14.00">created_events</text>
</g>
<!-- User&#45;&gt;Following -->
<g id="edge16" class="edge"><title>User&#45;&gt;Following</title>
<path fill="none" stroke="#184ee9" d="M339.516,-76.3349C361.187,-65.1896 391.157,-49.7765 414.566,-37.7376"/>
<ellipse fill="none" stroke="#184ee9" cx="335.82" cy="-78.2353" rx="4.00002" ry="4.00002"/>
<polygon fill="#184ee9" stroke="#184ee9" points="414.613,-37.7132 425.564,-37.1414 419.06,-35.4264 423.506,-33.1396 423.506,-33.1396 423.506,-33.1396 419.06,-35.4264 421.448,-29.1378 414.613,-37.7132 414.613,-37.7132"/>
</g>
<!-- User&#45;&gt;Micropost -->
<g id="edge28" class="edge"><title>User&#45;&gt;Micropost</title>
<path fill="none" stroke="#f7612f" d="M282.372,-76.1709C260.926,-65.0625 231.427,-49.7825 208.321,-37.8139"/>
<ellipse fill="none" stroke="#f7612f" cx="286.034" cy="-78.068" rx="4.00002" ry="4.00002"/>
<polygon fill="#f7612f" stroke="#f7612f" points="208.052,-37.6745 201.242,-29.0792 203.612,-35.3747 199.173,-33.075 199.173,-33.075 199.173,-33.075 203.612,-35.3747 197.103,-37.0708 208.052,-37.6745 208.052,-37.6745"/>
</g>
<!-- User&#45;&gt;Translation -->
<g id="edge24" class="edge"><title>User&#45;&gt;Translation</title>
<path fill="none" stroke="#ee52c3" d="M277.341,-81.643C232.562,-69.1949 153.06,-47.0939 101.456,-32.7484"/>
<ellipse fill="none" stroke="#ee52c3" cx="281.365" cy="-82.7618" rx="4.00001" ry="4.00001"/>
<polygon fill="#ee52c3" stroke="#ee52c3" points="101.161,-32.6663 92.7312,-25.6523 96.3432,-31.3271 91.5259,-29.9879 91.5259,-29.9879 91.5259,-29.9879 96.3432,-31.3271 90.3206,-34.3235 101.161,-32.6663 101.161,-32.6663"/>
</g>
<!-- User&#45;&gt;User -->
<g id="edge22" class="edge"><title>User&#45;&gt;User</title>
<path fill="none" stroke="#09b856" d="M344.116,-104.494C375.545,-109.636 415,-105.472 415,-92 415,-78.5283 375.545,-74.3636 344.116,-79.5059"/>
<polygon fill="#09b856" stroke="#09b856" points="344.055,-104.482 335.146,-98.0869 339.154,-103.49 334.253,-102.497 334.253,-102.497 334.253,-102.497 339.154,-103.49 333.361,-106.908 344.055,-104.482 344.055,-104.482"/>
<polygon fill="#09b856" stroke="#09b856" points="344.055,-79.5182 333.361,-77.092 339.154,-80.5104 334.253,-81.5026 334.253,-81.5026 334.253,-81.5026 339.154,-80.5104 335.146,-85.9131 344.055,-79.5182 344.055,-79.5182"/>
<text text-anchor="middle" x="440.5" y="-88.3" font-family="Times,serif" font-size="14.00">receivers</text>
</g>
<!-- User&#45;&gt;User -->
<g id="edge18" class="edge"><title>User&#45;&gt;User</title>
<path fill="none" stroke="#860f5c" d="M348.985,-94.9485C353.815,-94.433 357,-93.4502 357,-92 357,-90.5498 353.815,-89.567 348.985,-89.0515"/>
<polygon fill="#860f5c" stroke="#860f5c" points="348.837,-94.9546 338.658,-90.8756 343.842,-95.1632 338.846,-95.3717 338.846,-95.3717 338.846,-95.3717 343.842,-95.1632 339.034,-99.8678 348.837,-94.9546 348.837,-94.9546"/>
<polygon fill="#860f5c" stroke="#860f5c" points="348.837,-89.0454 339.034,-84.1322 343.842,-88.8368 338.846,-88.6283 338.846,-88.6283 338.846,-88.6283 343.842,-88.8368 338.658,-93.1244 348.837,-89.0454 348.837,-89.0454"/>
<text text-anchor="middle" x="386" y="-88.3" font-family="Times,serif" font-size="14.00">followeds</text>
</g>
<!-- UserSession -->
<g id="node11" class="node"><title>UserSession</title>
<polygon fill="none" stroke="black" points="714.25,-272 627.75,-272 627.75,-236 714.25,-236 714.25,-272"/>
<text text-anchor="middle" x="671" y="-250.3" font-family="Times,serif" font-size="14.00">UserSession</text>
</g>
<!-- Authlogic::Session::Base -->
<g id="node26" class="node"><title>Authlogic::Session::Base</title>
<ellipse fill="none" stroke="black" cx="671" cy="-349" rx="103.486" ry="18"/>
<text text-anchor="middle" x="671" y="-345.3" font-family="Times,serif" font-size="14.00">Authlogic::Session::Base</text>
</g>
<!-- Authlogic::Session::Base&#45;&gt;UserSession -->
<g id="edge30" class="edge"><title>Authlogic::Session::Base&#45;&gt;UserSession</title>
<path fill="none" stroke="black" d="M671,-330.942C671,-314.267 671,-289.01 671,-272.264"/>
</g>
</g>
</svg>
