<?xml version="1.0" encoding="UTF-8" standalone="no"?>
<!DOCTYPE svg PUBLIC "-//W3C//DTD SVG 1.1//EN"
 "http://www.w3.org/Graphics/SVG/1.1/DTD/svg11.dtd">
<!-- Generated by graphviz version 2.28.0 (20120402.2051)
 -->
<!-- Title: models_diagram Pages: 1 -->
<svg width="578pt" height="322pt"
 viewBox="0.00 0.00 578.00 322.00" xmlns="http://www.w3.org/2000/svg" xmlns:xlink="http://www.w3.org/1999/xlink">
<g id="graph1" class="graph" transform="scale(1 1) rotate(0) translate(4 318)">
<title>models_diagram</title>
<polygon fill="white" stroke="white" points="-4,5 -4,-318 575,-318 575,5 -4,5"/>
<!-- _diagram_info -->
<g id="node1" class="node"><title>_diagram_info</title>
<text text-anchor="start" x="8" y="-299.6" font-family="Times,serif" font-size="13.00">Models diagram</text>
<text text-anchor="start" x="8" y="-285.6" font-family="Times,serif" font-size="13.00">Date: Apr 02 2012 &#45; 23:02</text>
<text text-anchor="start" x="8" y="-271.6" font-family="Times,serif" font-size="13.00">Migration version: 20120329083621</text>
<text text-anchor="start" x="8" y="-257.6" font-family="Times,serif" font-size="13.00">Generated by RailRoady 1.0.7</text>
<text text-anchor="start" x="8" y="-243.6" font-family="Times,serif" font-size="13.00">http://railroady.prestonlee.com</text>
</g>
<!-- Category -->
<g id="node2" class="node"><title>Category</title>
<ellipse fill="none" stroke="black" cx="271" cy="-275" rx="45.244" ry="18"/>
<text text-anchor="middle" x="271" y="-271.3" font-family="Times,serif" font-size="14.00">Category</text>
</g>
<!-- Event -->
<g id="node5" class="node"><title>Event</title>
<ellipse fill="none" stroke="black" cx="271" cy="-180" rx="32.2457" ry="18"/>
<text text-anchor="middle" x="271" y="-176.3" font-family="Times,serif" font-size="14.00">Event</text>
</g>
<!-- Category&#45;&gt;Event -->
<g id="edge2" class="edge"><title>Category&#45;&gt;Event</title>
<path fill="none" stroke="#9079c2" d="M271,-246.77C271,-234.646 271,-220.399 271,-208.271"/>
<polygon fill="#9079c2" stroke="#9079c2" points="271,-246.942 266.5,-256.942 271,-251.942 271,-256.942 271,-256.942 271,-256.942 271,-251.942 275.5,-256.942 271,-246.942 271,-246.942"/>
<polygon fill="#9079c2" stroke="#9079c2" points="271,-208.264 275.5,-198.264 271,-203.264 271,-198.264 271,-198.264 271,-198.264 271,-203.264 266.5,-198.264 271,-208.264 271,-208.264"/>
</g>
<!-- Comment -->
<g id="node3" class="node"><title>Comment</title>
<ellipse fill="none" stroke="black" cx="119" cy="-18" rx="48.1437" ry="18"/>
<text text-anchor="middle" x="119" y="-14.3" font-family="Times,serif" font-size="14.00">Comment</text>
</g>
<!-- Communication -->
<g id="node4" class="node"><title>Communication</title>
<ellipse fill="none" stroke="black" cx="257" cy="-18" rx="71.2405" ry="18"/>
<text text-anchor="middle" x="257" y="-14.3" font-family="Times,serif" font-size="14.00">Communication</text>
</g>
<!-- Event&#45;&gt;Comment -->
<g id="edge6" class="edge"><title>Event&#45;&gt;Comment</title>
<path fill="none" stroke="#4704d7" d="M250.656,-157.585C222.334,-127.772 171.186,-73.933 141.672,-42.8647"/>
<ellipse fill="none" stroke="#4704d7" cx="253.671" cy="-160.759" rx="4.00002" ry="4.00002"/>
<polygon fill="#4704d7" stroke="#4704d7" points="141.548,-42.7352 137.923,-32.3858 138.105,-39.1101 134.661,-35.4851 134.661,-35.4851 134.661,-35.4851 138.105,-39.1101 131.398,-38.5845 141.548,-42.7352 141.548,-42.7352"/>
</g>
<!-- Translation -->
<g id="node7" class="node"><title>Translation</title>
<ellipse fill="none" stroke="black" cx="518" cy="-18" rx="52.4675" ry="18"/>
<text text-anchor="middle" x="518" y="-14.3" font-family="Times,serif" font-size="14.00">Translation</text>
</g>
<!-- Event&#45;&gt;Translation -->
<g id="edge8" class="edge"><title>Event&#45;&gt;Translation</title>
<path fill="none" stroke="#63fe03" d="M309.329,-171.546C348.803,-162.368 410.525,-143.686 454,-110 476.407,-92.6384 494.156,-65.2763 505.224,-45.0854"/>
<ellipse fill="none" stroke="#63fe03" cx="305.161" cy="-172.484" rx="4.00001" ry="4.00001"/>
<polygon fill="#63fe03" stroke="#63fe03" points="505.3,-44.9418 513.951,-38.2027 507.636,-40.5211 509.972,-36.1003 509.972,-36.1003 509.972,-36.1003 507.636,-40.5211 505.993,-33.9979 505.3,-44.9418 505.3,-44.9418"/>
</g>
<!-- User -->
<g id="node8" class="node"><title>User</title>
<ellipse fill="none" stroke="black" cx="272" cy="-92" rx="28.3955" ry="18"/>
<text text-anchor="middle" x="272" y="-88.3" font-family="Times,serif" font-size="14.00">User</text>
</g>
<!-- Event&#45;&gt;User -->
<g id="edge4" class="edge"><title>Event&#45;&gt;User</title>
<path fill="none" stroke="#e6889f" d="M269.116,-152.001C268.799,-144.251 268.667,-135.791 269,-128 269.109,-125.441 269.264,-122.779 269.445,-120.118"/>
<polygon fill="#e6889f" stroke="#e6889f" points="269.116,-152.012 265.143,-162.233 269.376,-157.006 269.636,-161.999 269.636,-161.999 269.636,-161.999 269.376,-157.006 274.13,-161.765 269.116,-152.012 269.116,-152.012"/>
<polygon fill="#e6889f" stroke="#e6889f" points="269.451,-120.04 274.728,-110.427 269.847,-115.055 270.242,-110.071 270.242,-110.071 270.242,-110.071 269.847,-115.055 265.757,-109.715 269.451,-120.04 269.451,-120.04"/>
</g>
<!-- Following -->
<g id="node6" class="node"><title>Following</title>
<ellipse fill="none" stroke="black" cx="397" cy="-18" rx="50.0684" ry="18"/>
<text text-anchor="middle" x="397" y="-14.3" font-family="Times,serif" font-size="14.00">Following</text>
</g>
<!-- User&#45;&gt;Comment -->
<g id="edge12" class="edge"><title>User&#45;&gt;Comment</title>
<path fill="none" stroke="#49a64f" d="M244.492,-75.1558C232.251,-68.3347 217.566,-60.4605 204,-54 190.186,-47.4211 174.797,-40.8609 160.95,-35.2281"/>
<ellipse fill="none" stroke="#49a64f" cx="248.278" cy="-77.2845" rx="4.00002" ry="4.00002"/>
<polygon fill="#49a64f" stroke="#49a64f" points="160.927,-35.2188 153.327,-27.3128 156.288,-33.3533 151.649,-31.4879 151.649,-31.4879 151.649,-31.4879 156.288,-33.3533 149.97,-35.663 160.927,-35.2188 160.927,-35.2188"/>
</g>
<!-- User&#45;&gt;Communication -->
<g id="edge18" class="edge"><title>User&#45;&gt;Communication</title>
<path fill="none" stroke="#fabdb2" d="M266.81,-66.0858C265.506,-59.8265 264.098,-53.0717 262.768,-46.686"/>
<ellipse fill="none" stroke="#fabdb2" cx="267.629" cy="-70.0211" rx="4.00001" ry="4.00001"/>
<polygon fill="#fabdb2" stroke="#fabdb2" points="262.673,-46.2305 265.039,-35.5228 261.653,-41.3356 260.633,-36.4407 260.633,-36.4407 260.633,-36.4407 261.653,-41.3356 256.228,-37.3585 262.673,-46.2305 262.673,-46.2305"/>
</g>
<!-- User&#45;&gt;Event -->
<g id="edge10" class="edge"><title>User&#45;&gt;Event</title>
<path fill="none" stroke="#c0f9f3" d="M271.705,-118.338C271.585,-128.711 271.445,-140.742 271.322,-151.342"/>
<ellipse fill="none" stroke="#c0f9f3" cx="271.755" cy="-114.084" rx="4" ry="4"/>
<polygon fill="#c0f9f3" stroke="#c0f9f3" points="271.319,-151.597 266.703,-161.544 271.261,-156.597 271.202,-161.597 271.202,-161.597 271.202,-161.597 271.261,-156.597 275.702,-161.649 271.319,-151.597 271.319,-151.597"/>
<text text-anchor="middle" x="313" y="-132.3" font-family="Times,serif" font-size="14.00">created_events</text>
</g>
<!-- User&#45;&gt;Following -->
<g id="edge14" class="edge"><title>User&#45;&gt;Following</title>
<path fill="none" stroke="#386e44" d="M299.302,-75.274C317.917,-64.5516 342.714,-50.2687 362.667,-38.7756"/>
<ellipse fill="none" stroke="#386e44" cx="295.828" cy="-77.2752" rx="4.00002" ry="4.00002"/>
<polygon fill="#386e44" stroke="#386e44" points="362.789,-38.7054 373.701,-37.6135 367.122,-36.2097 371.455,-33.7141 371.455,-33.7141 371.455,-33.7141 367.122,-36.2097 369.209,-29.8147 362.789,-38.7054 362.789,-38.7054"/>
</g>
<!-- User&#45;&gt;Translation -->
<g id="edge22" class="edge"><title>User&#45;&gt;Translation</title>
<path fill="none" stroke="#951b98" d="M305.159,-81.2949C347.547,-68.8886 421.249,-47.3172 469.83,-33.0984"/>
<ellipse fill="none" stroke="#951b98" cx="301.239" cy="-82.4423" rx="4.00001" ry="4.00001"/>
<polygon fill="#951b98" stroke="#951b98" points="469.898,-33.0788 480.759,-34.5886 474.696,-31.6743 479.495,-30.2698 479.495,-30.2698 479.495,-30.2698 474.696,-31.6743 478.231,-25.951 469.898,-33.0788 469.898,-33.0788"/>
</g>
<!-- User&#45;&gt;User -->
<g id="edge16" class="edge"><title>User&#45;&gt;User</title>
<path fill="none" stroke="#1f7123" d="M309.985,-94.9485C314.815,-94.433 318,-93.4502 318,-92 318,-90.5498 314.815,-89.567 309.985,-89.0515"/>
<polygon fill="#1f7123" stroke="#1f7123" points="309.837,-94.9546 299.658,-90.8756 304.842,-95.1632 299.846,-95.3717 299.846,-95.3717 299.846,-95.3717 304.842,-95.1632 300.034,-99.8678 309.837,-94.9546 309.837,-94.9546"/>
<polygon fill="#1f7123" stroke="#1f7123" points="309.837,-89.0454 300.034,-84.1322 304.842,-88.8368 299.846,-88.6283 299.846,-88.6283 299.846,-88.6283 304.842,-88.8368 299.658,-93.1244 309.837,-89.0454 309.837,-89.0454"/>
<text text-anchor="middle" x="347" y="-88.3" font-family="Times,serif" font-size="14.00">followeds</text>
</g>
<!-- User&#45;&gt;User -->
<g id="edge20" class="edge"><title>User&#45;&gt;User</title>
<path fill="none" stroke="#4b79c6" d="M305.116,-104.494C336.545,-109.636 376,-105.472 376,-92 376,-78.5283 336.545,-74.3636 305.116,-79.5059"/>
<polygon fill="#4b79c6" stroke="#4b79c6" points="305.055,-104.482 296.146,-98.0869 300.154,-103.49 295.253,-102.497 295.253,-102.497 295.253,-102.497 300.154,-103.49 294.361,-106.908 305.055,-104.482 305.055,-104.482"/>
<polygon fill="#4b79c6" stroke="#4b79c6" points="305.055,-79.5182 294.361,-77.092 300.154,-80.5104 295.253,-81.5026 295.253,-81.5026 295.253,-81.5026 300.154,-80.5104 296.146,-85.9131 305.055,-79.5182 305.055,-79.5182"/>
<text text-anchor="middle" x="401.5" y="-88.3" font-family="Times,serif" font-size="14.00">receivers</text>
</g>
<!-- UserSession -->
<g id="node9" class="node"><title>UserSession</title>
<polygon fill="none" stroke="black" points="481.25,-198 394.75,-198 394.75,-162 481.25,-162 481.25,-198"/>
<text text-anchor="middle" x="438" y="-176.3" font-family="Times,serif" font-size="14.00">UserSession</text>
</g>
<!-- Authlogic::Session::Base -->
<g id="node21" class="node"><title>Authlogic::Session::Base</title>
<ellipse fill="none" stroke="black" cx="438" cy="-275" rx="103.486" ry="18"/>
<text text-anchor="middle" x="438" y="-271.3" font-family="Times,serif" font-size="14.00">Authlogic::Session::Base</text>
</g>
<!-- Authlogic::Session::Base&#45;&gt;UserSession -->
<g id="edge24" class="edge"><title>Authlogic::Session::Base&#45;&gt;UserSession</title>
<path fill="none" stroke="black" d="M438,-256.942C438,-240.267 438,-215.01 438,-198.264"/>
</g>
</g>
</svg>
